<svg xmlns="http://www.w3.org/2000/svg" viewBox="0 0 750 500"><g id="freepik--background-complete--inject-20"><circle cx="661.13" cy="88.35" r="18.4" transform="translate(385.85 695.9) rotate(-73.24)" style="fill:#ebebeb"></circle><path d="M658.51,129.51a72.48,72.48,0,0,1-.2-7.6,72.36,72.36,0,0,1,.2-7.59c.1,0,.19,3.4.19,7.59S658.61,129.51,658.51,129.51Z" style="fill:#e0e0e0"></path><path d="M647.9,110c.09.06-1.64,3.23-3.86,7.09a80.32,80.32,0,0,1-4.21,6.88c-.09-.05,1.64-3.22,3.87-7.08S647.81,110,647.9,110Z" style="fill:#e0e0e0"></path><path d="M637,103.27a43.27,43.27,0,0,1-4.3,3.66,41.33,41.33,0,0,1-4.54,3.36,41.9,41.9,0,0,1,4.3-3.66A39.8,39.8,0,0,1,637,103.27Z" style="fill:#e0e0e0"></path><path d="M676.87,122a10.54,10.54,0,0,1-.49-1.87c-.26-1.16-.64-2.76-1.11-4.51s-.95-3.31-1.3-4.45a11.73,11.73,0,0,1-.52-1.86,8.13,8.13,0,0,1,.78,1.77c.42,1.12.94,2.68,1.42,4.44s.8,3.38,1,4.56A8.49,8.49,0,0,1,676.87,122Z" style="fill:#e0e0e0"></path><path d="M695.53,108.78a64.79,64.79,0,0,1-5.44-4.5,63.78,63.78,0,0,1-5.18-4.79,67.26,67.26,0,0,1,5.44,4.5A66,66,0,0,1,695.53,108.78Z" style="fill:#e0e0e0"></path><path d="M702.68,90.58a15.87,15.87,0,0,1-2.22-.32c-1.36-.23-3.25-.52-5.34-.76s-4-.38-5.37-.47a15.34,15.34,0,0,1-2.24-.19,11.17,11.17,0,0,1,2.25-.08,53.18,53.18,0,0,1,5.41.35c2.1.25,4,.58,5.34.88A11.24,11.24,0,0,1,702.68,90.58Z" style="fill:#e0e0e0"></path><path d="M702.71,72.68c0,.1-4,1.16-8.9,2.37s-9,2.09-9,2,4-1.17,8.9-2.37S702.68,72.57,702.71,72.68Z" style="fill:#e0e0e0"></path><path d="M681.91,51.82c.09.06-1.82,3.1-4.26,6.79s-4.49,6.64-4.58,6.58,1.82-3.1,4.26-6.79S681.82,51.76,681.91,51.82Z" style="fill:#e0e0e0"></path><path d="M661.27,47.47a17,17,0,0,1,0,2.52c0,1.56-.06,3.71,0,6.09s0,4.53.06,6.09a16.25,16.25,0,0,1,0,2.52,14.38,14.38,0,0,1-.25-2.51c-.1-1.56-.18-3.72-.18-6.1s.07-4.54.16-6.1A15.72,15.72,0,0,1,661.27,47.47Z" style="fill:#e0e0e0"></path><path d="M645.64,66.93c-.09.06-2-3-4.33-6.71s-4.09-6.86-4-6.92,2,3,4.33,6.72S645.73,66.88,645.64,66.93Z" style="fill:#e0e0e0"></path><path d="M636.31,74.87a9.29,9.29,0,0,1-2-.31c-1.2-.25-2.84-.66-4.63-1.18s-3.39-1.09-4.53-1.52a8.8,8.8,0,0,1-1.81-.81,11.93,11.93,0,0,1,1.9.55c1.16.37,2.77.88,4.55,1.4s3.41,1,4.58,1.29A10.55,10.55,0,0,1,636.31,74.87Z" style="fill:#e0e0e0"></path><path d="M632.23,89a48.37,48.37,0,0,1-5.88.76,44.79,44.79,0,0,1-5.91.37,44.05,44.05,0,0,1,5.88-.76A44.79,44.79,0,0,1,632.23,89Z" style="fill:#e0e0e0"></path><path d="M223.14,83.36c.69-5-6.36-9.11-11.66-9.53-2.53-.21-5.15.18-7.54-.66-5.19-1.8-7.26-8.5-12.32-10.63-3.78-1.6-8.13-.18-11.8,1.67s-7.29,4.16-11.39,4.43c-3.56.22-7.43-1.1-10.54.64-2.33,1.3-3.54,4-5.69,5.56s-4.82,1.87-7.42,2-5.29.17-7.66,1.25-4.32,3.59-3.83,6.14Z" style="fill:#ebebeb"></path><path d="M109.69,129.91c.48-3.46-4.4-6.3-8.07-6.6-1.74-.14-3.56.13-5.22-.45-3.59-1.25-5-5.89-8.52-7.36-2.62-1.11-5.63-.12-8.17,1.15s-5,2.89-7.88,3.07c-2.47.16-5.14-.76-7.3.45-1.61.89-2.45,2.75-3.93,3.84a9.3,9.3,0,0,1-5.14,1.39,14.53,14.53,0,0,0-5.3.87c-1.64.75-3,2.48-2.65,4.25Z" style="fill:#f5f5f5"></path><path d="M557.92,83c.48-3.45-4.4-6.3-8.07-6.59-1.75-.14-3.56.12-5.22-.45-3.59-1.25-5-5.89-8.52-7.37-2.62-1.1-5.63-.12-8.17,1.16s-5.05,2.88-7.88,3.07c-2.47.15-5.15-.76-7.3.44-1.61.9-2.45,2.75-3.94,3.85a9.39,9.39,0,0,1-5.14,1.39,14.48,14.48,0,0,0-5.29.87c-1.64.75-3,2.48-2.66,4.25Z" style="fill:#f5f5f5"></path><path d="M698,247.48c.67-4.9-6.24-8.93-11.43-9.34-2.47-.2-5,.18-7.39-.64-5.08-1.77-7.11-8.34-12.07-10.43-3.71-1.56-8-.17-11.57,1.64s-7.15,4.08-11.16,4.34c-3.5.22-7.29-1.07-10.35.63-2.27,1.27-3.47,3.9-5.56,5.45s-4.74,1.83-7.28,2-5.19.16-7.51,1.23-4.24,3.51-3.76,6Z" style="fill:#ebebeb"></path><rect x="138.22" y="151.07" width="440.88" height="53.49" style="fill:#f5f5f5"></rect><polygon points="569.78 177.82 569.78 131.53 595.27 154.67 620.76 177.82 595.27 200.96 569.78 224.11 569.78 177.82" style="fill:#f5f5f5"></polygon></g><g id="freepik--Floor--inject-20"><polygon points="740.38 345.54 515.48 345.54 534.04 387.02 573.92 418.68 606.93 423.05 625.23 438.02 740.38 483.09 740.38 345.54" style="fill:#e0e0e0"></polygon><path d="M740.38,345.54s0,.82,0,2.46,0,4.07,0,7.24c0,6.37,0,15.72.06,27.67,0,24,.06,58.38.11,100.18v.32l-.29-.12-115.16-45h0l0,0-18.3-15,.13.06-33-4.37h-.07l-.06,0-1.21-1-38.67-30.71,0,0,0-.05c-6.4-14.3-12.6-28.18-18.55-41.49l-.16-.35h.38l161.51.12,46.67.06,12.44,0h3.2l1.08,0h-1.11l-3.23,0-12.49,0-46.73.07-161.34.12.23-.35c6,13.3,12.17,27.18,18.57,41.48l-.08-.1,38.68,30.7,1.21,1-.13-.06,33,4.37H607l.05.05,18.31,15-.07,0,115.12,45.1-.29.2c.05-41.75.09-76.11.11-100,0-12,.05-21.35.06-27.73,0-3.19,0-5.63,0-7.28S740.38,345.54,740.38,345.54Z" style="fill:#263238"></path><g style="opacity:0.30000000000000004"><polyline points="517.9 345.54 541.77 382.93 615.11 407.94 627.93 435.23 657.19 450.53 627.93 439.08 606.93 423.05 573.92 418.68 534.04 387.02 515.48 345.54"></polyline><polygon points="657.18 450.56 627.91 439.1 606.92 423.07 573.91 418.7 534.02 387.04 534.02 387.03 515.46 345.55 515.5 345.53 534.06 387.01 573.93 418.66 606.95 423.03 627.94 439.06 656.77 450.34 627.91 435.25 627.91 435.24 615.09 407.96 541.76 382.95 541.75 382.94 517.88 345.55 517.92 345.52 541.79 382.91 615.13 407.92 615.13 407.93 627.95 435.21 657.2 450.51 657.18 450.56" style="fill:#fff"></polygon></g><polygon points="248.94 366.24 253.83 352.68 263.73 355.12 263.73 368.32 248.94 366.24" style="fill:#e0e0e0"></polygon><path d="M248.93,366.24a8,8,0,0,1,1.14.11l3.07.37c2.62.32,6.29.78,10.62,1.37l-.27.23c0-3.43,0-7.32,0-11.43v-1.77l.19.25-9.89-2.46.27-.15c-1.45,4-2.72,7.31-3.62,9.68-.44,1.15-.79,2.07-1.07,2.78a8.86,8.86,0,0,1-.42,1,9.19,9.19,0,0,1,.3-.95q.35-1.07.93-2.76c.81-2.39,2-5.83,3.45-9.93l.07-.19.2,0,9.91,2.4.2.05v2c0,4.11,0,8,0,11.43v.27l-.27,0c-4.44-.64-8.16-1.23-10.75-1.64l-3-.48A8.89,8.89,0,0,1,248.93,366.24Z" style="fill:#263238"></path><polygon points="238.97 385.32 244.4 381.29 245.71 388.72 240.15 388.72 238.97 385.32" style="fill:#e0e0e0"></polygon><path d="M239,385.32a5.35,5.35,0,0,1,.42.93c.24.58.56,1.4.94,2.41l-.18-.12,5.56-.07-.25.3c-.14-.82-.3-1.67-.45-2.54-.3-1.75-.59-3.4-.84-4.9l.37.15c-1.58,1.15-2.95,2.11-3.93,2.79a13.62,13.62,0,0,1-1.64,1.05,10.7,10.7,0,0,1,1.39-1.18c.92-.74,2.27-1.8,3.9-3l.3-.23.07.38.89,4.89c.15.87.3,1.72.44,2.54l0,.3h-.3l-5.56-.07H240l0-.13c-.36-1.09-.62-2-.79-2.56A4.1,4.1,0,0,1,239,385.32Z" style="fill:#263238"></path><polygon points="256.33 382.74 260.13 378.77 261.48 382.23 259.44 384.55 256.33 382.74" style="fill:#e0e0e0"></polygon><path d="M256.33,382.74c.09,0,1.42.64,3.22,1.62l-.27.05c.62-.73,1.29-1.52,2-2.35l-.05.26-.46-1.17-.89-2.29.41.08c-2.14,2.17-3.86,3.76-4,3.8A49.08,49.08,0,0,1,260,378.6l.26-.29.15.37c.28.72.59,1.48.9,2.28l.46,1.17.06.15-.11.12-2.06,2.29-.13.14-.15-.09A25.16,25.16,0,0,1,256.33,382.74Z" style="fill:#263238"></path><polygon points="14.08 345.54 238.97 345.54 220.41 387.02 180.53 418.68 147.52 423.05 129.22 438.02 14.08 483.09 14.08 345.54" style="fill:#e0e0e0"></polygon><path d="M14.08,345.54s0,.86,0,2.5,0,4.09,0,7.28c0,6.38,0,15.75,0,27.73,0,23.93.07,58.29.11,100l-.29-.2,115.13-45.1-.07,0,18.3-15,.06-.05h.07l33-4.37-.13.06,1.21-1,38.67-30.7-.07.1c6.4-14.3,12.61-28.18,18.57-41.48l.22.35-161.33-.12-46.73-.07-12.49,0-3.23,0H14.08l1.07,0h3.21l12.44,0,46.67-.06,161.5-.12h.39l-.16.35-18.55,41.49,0,.05-.05,0L181.9,417.93l-1.21,1-.05,0h-.08l-33,4.37.13-.06-18.31,15,0,0h0l-115.15,45-.29.12v-.32c0-41.8.08-76.21.11-100.18,0-12,0-21.3,0-27.67,0-3.17,0-5.6,0-7.24S14.08,345.54,14.08,345.54Z" style="fill:#263238"></path><g style="opacity:0.30000000000000004"><polyline points="236.47 345.29 212.59 382.68 139.26 407.69 126.44 434.98 97.18 450.29 129.58 437.6 147.44 422.8 180.44 418.44 220.33 386.77 238.89 345.29"></polyline><polygon points="97.19 450.31 97.17 450.26 126.42 434.96 139.25 407.67 139.25 407.67 212.58 382.66 236.45 345.28 236.49 345.3 212.61 382.7 212.6 382.7 139.28 407.71 126.46 435 126.45 435 97.6 450.1 129.57 437.58 147.43 422.78 147.44 422.78 180.44 418.41 220.31 386.76 238.86 345.28 238.91 345.3 220.34 386.8 180.46 418.46 180.45 418.46 147.45 422.83 129.59 437.63 97.19 450.31" style="fill:#fff"></polygon></g></g><g id="freepik--Lines--inject-20"><path d="M373.65,439.88c-.14,0-.26-16.33-.26-36.48s.12-36.49.26-36.49.26,16.34.26,36.49S373.79,439.88,373.65,439.88Z" style="fill:#263238"></path><path d="M383,440.93c-.14,0-.26-20.07-.26-44.83s.12-44.82.26-44.82.26,20.06.26,44.82S383.17,440.93,383,440.93Z" style="fill:#263238"></path><path d="M408.79,281.34l-1-.14-2.78-.47-10.69-1.84-7.79-.87-4.45-.49-2.36-.27-2.46-.12-10.7-.54-1.43-.07h-1.45l-3,0-6.16.06a256.31,256.31,0,0,0-58.41,8.22c-1.34.34-2.71.63-4.06,1l-4.06,1.26-8.26,2.54c-1.41.39-2.75,1-4.14,1.47l-4.16,1.54-4.19,1.57-2.12.78c-.7.27-1.38.6-2.08.9l-8.38,3.68-2.12.93c-.71.3-1.41.63-2.1,1l-4.16,2.12c-2.77,1.44-5.6,2.83-8.39,4.33l-8.25,4.85A251.16,251.16,0,0,0,191,341.78l-.21.19-.16-.22a107.31,107.31,0,0,0-20.16-20.28A115.2,115.2,0,0,0,148,308a119.28,119.28,0,0,0-42-10.57,110.34,110.34,0,0,0-28.53,1.88c-1.65.3-3.08.67-4.33,1s-2.3.57-3.14.81l-1.91.52-.65.17s.21-.08.64-.21L70,301c.83-.25,1.87-.56,3.13-.85s2.68-.69,4.33-1a108.88,108.88,0,0,1,28.58-2,119.09,119.09,0,0,1,42.15,10.5,114.86,114.86,0,0,1,22.56,13.53A107.58,107.58,0,0,1,191,341.44l-.37,0a251,251,0,0,1,38.8-29l8.27-4.86c2.79-1.5,5.63-2.89,8.41-4.33l4.17-2.13c.69-.37,1.39-.69,2.1-1l2.13-.94,8.4-3.68c.7-.3,1.38-.63,2.08-.9l2.12-.79,4.21-1.56,4.16-1.55c1.39-.49,2.74-1.07,4.15-1.46l8.28-2.54,4.07-1.25c1.35-.4,2.72-.69,4.07-1a255.59,255.59,0,0,1,58.53-8.12l6.16,0,3,0h1.46l1.43.08,10.71.58,2.46.13,2.36.28,4.46.51,7.79.92,10.68,1.94,2.77.52Z" style="fill:#263238"></path><path d="M189.24,316.81a74.38,74.38,0,0,1-5.73-6.81,78,78,0,0,1-5.31-7.13,77.32,77.32,0,0,1,5.72,6.81A77.05,77.05,0,0,1,189.24,316.81Z" style="fill:#263238"></path><path d="M516.45,319.69a2.68,2.68,0,0,1-.46-.29c-.34-.23-.75-.53-1.26-.89-1.09-.79-2.69-1.89-4.7-3.2s-4.44-2.81-7.2-4.37-5.88-3.12-9.21-4.62-6.6-2.74-9.6-3.78-5.73-1.85-8-2.46-4.21-1.08-5.52-1.36l-1.51-.35a1.9,1.9,0,0,1-.51-.16,1.78,1.78,0,0,1,.53.06l1.53.25c1.33.22,3.23.63,5.57,1.2s5.1,1.36,8.12,2.36,6.29,2.28,9.65,3.77,6.46,3.12,9.23,4.68,5.2,3.1,7.18,4.47,3.56,2.51,4.61,3.35l1.21,1C516.33,319.55,516.47,319.67,516.45,319.69Z" style="fill:#263238"></path><path d="M193,316a95.62,95.62,0,0,1-.26-9.9,95.62,95.62,0,0,1,.26-9.9,92.37,92.37,0,0,1,.26,9.9A92.37,92.37,0,0,1,193,316Z" style="fill:#263238"></path></g><g id="freepik--Plants--inject-20"><path d="M73.41,327a13.09,13.09,0,0,1,1.19,2.62c.64,1.66,1.44,4,2.16,6.6A69.07,69.07,0,0,1,78.27,343a13.33,13.33,0,0,1,.32,2.86,18.61,18.61,0,0,1-.69-2.79c-.38-1.73-.93-4.11-1.64-6.71s-1.46-4.93-2-6.61A19.64,19.64,0,0,1,73.41,327Z" style="fill:#263238"></path><path d="M85.91,322.85a24.94,24.94,0,0,1-.2,3.33c-.16,2.06-.33,4.89-.36,8s.09,6,.21,8a27.05,27.05,0,0,1,.15,3.33,2.64,2.64,0,0,1-.2-.88c-.1-.57-.21-1.4-.31-2.42a71.93,71.93,0,0,1-.37-8.07,74.34,74.34,0,0,1,.51-8.06c.13-1,.25-1.86.36-2.42A3.32,3.32,0,0,1,85.91,322.85Z" style="fill:#263238"></path><path d="M100.51,324.85c.06,0-.7,1.08-1.81,2.82a51.88,51.88,0,0,0-3.78,7.1,51,51,0,0,0-2.57,7.63,33.47,33.47,0,0,1-.81,3.25,3.69,3.69,0,0,1,0-.91c.06-.58.2-1.41.4-2.43a40.45,40.45,0,0,1,6.4-14.84c.6-.85,1.11-1.52,1.49-2S100.48,324.83,100.51,324.85Z" style="fill:#263238"></path><path d="M534.33,325s.27.19.68.61,1,1,1.68,1.85a50.61,50.61,0,0,1,4.79,6.71,49.09,49.09,0,0,1,3.62,7.4c.38,1,.66,1.79.83,2.35a2.8,2.8,0,0,1,.21.9c-.07,0-.54-1.19-1.38-3.11a68.07,68.07,0,0,0-3.73-7.28,67.32,67.32,0,0,0-4.62-6.74C535.12,326.06,534.27,325.07,534.33,325Z" style="fill:#263238"></path><path d="M550.63,323.85a26.79,26.79,0,0,1-.11,3.23c-.09,2-.16,4.73-.07,7.76s.34,5.77.56,7.74a25.77,25.77,0,0,1,.3,3.22,16.53,16.53,0,0,1-.67-3.17,64.8,64.8,0,0,1-.48-15.58A15.29,15.29,0,0,1,550.63,323.85Z" style="fill:#263238"></path><path d="M562.33,330.58a57.19,57.19,0,0,0-4.25,7,55.06,55.06,0,0,0-2.69,7.71,8.37,8.37,0,0,1,.32-2.4,27,27,0,0,1,1.9-5.53,26.55,26.55,0,0,1,3.07-5A8.45,8.45,0,0,1,562.33,330.58Z" style="fill:#263238"></path><path d="M692.34,325s.27.19.69.61,1,1,1.68,1.85a49.76,49.76,0,0,1,4.78,6.71,50.26,50.26,0,0,1,3.63,7.4c.38,1,.66,1.79.82,2.35a3.52,3.52,0,0,1,.22.9,33.08,33.08,0,0,1-1.38-3.11,66.57,66.57,0,0,0-3.74-7.28,67.32,67.32,0,0,0-4.62-6.74C693.13,326.06,692.28,325.07,692.34,325Z" style="fill:#263238"></path><path d="M708.64,323.85a25.28,25.28,0,0,1-.1,3.23c-.1,2-.17,4.73-.08,7.76s.34,5.77.56,7.74a23.57,23.57,0,0,1,.3,3.22,16.53,16.53,0,0,1-.67-3.17,64.8,64.8,0,0,1-.48-15.58A16.17,16.17,0,0,1,708.64,323.85Z" style="fill:#263238"></path><path d="M720.34,330.58a57.94,57.94,0,0,0-4.24,7,57.63,57.63,0,0,0-2.7,7.71,8.37,8.37,0,0,1,.32-2.4,26.47,26.47,0,0,1,1.91-5.53,26.06,26.06,0,0,1,3.06-5A8.78,8.78,0,0,1,720.34,330.58Z" style="fill:#263238"></path><path d="M635.15,303a8.07,8.07,0,0,1,4.17,4.73,14.18,14.18,0,0,1,.56,6.41c-.47,4.16-2.84,8.36-5.38,11.68-3.5-3.05-4.31-8.39-4.55-11.12-.38-4.31,1.56-12.34,5.2-11.7" style="fill:#059669"></path><path d="M638.57,332.68a6.89,6.89,0,0,1,2.22-6.54,9.11,9.11,0,0,1,6.74-2.1,3.83,3.83,0,0,1,3,1.32,2.94,2.94,0,0,1,0,3,5.93,5.93,0,0,1-2.21,2.18c-3,1.9-6.32,3.19-9.75,2.16" style="fill:#059669"></path><path d="M634.08,345.43a5.66,5.66,0,0,1,.12-.85c.11-.6.26-1.38.43-2.31a23.89,23.89,0,0,1,2.38-7.38,14.74,14.74,0,0,1,5.3-5.63,9.54,9.54,0,0,1,2.16-.95,4.75,4.75,0,0,1,.62-.16.61.61,0,0,1,.22,0,15.44,15.44,0,0,0-2.89,1.32,15.15,15.15,0,0,0-5.14,5.6,25.91,25.91,0,0,0-2.44,7.27c-.21,1-.39,1.75-.52,2.29A4.05,4.05,0,0,1,634.08,345.43Z" style="fill:#263238"></path><path d="M634.21,309.24a1.3,1.3,0,0,1,0,.37c0,.28,0,.63.07,1.07,0,.93.1,2.28.16,3.95.1,3.33.19,7.94.17,13s-.15,9.7-.29,13c-.07,1.67-.13,3-.19,3.95,0,.44,0,.79-.07,1.07a1.61,1.61,0,0,1-.05.37,2.21,2.21,0,0,1,0-.38c0-.27,0-.63,0-1.07,0-1,.06-2.31.1-3.95.08-3.33.17-7.93.19-13s0-9.69-.08-13c0-1.64,0-3-.06-3.95,0-.44,0-.79,0-1.07A1.53,1.53,0,0,1,634.21,309.24Z" style="fill:#263238"></path><path d="M632.51,335.21a16.1,16.1,0,0,0-8.78-11.78c-1.17-.56-2.7-.93-3.66-.06s-.75,2.44-.28,3.65a13.73,13.73,0,0,0,12.64,8.53" style="fill:#059669"></path><path d="M624.29,327.37a4,4,0,0,1,.75.33c.23.11.52.25.84.44s.69.39,1.07.67a14.46,14.46,0,0,1,1.22.92,14,14,0,0,1,1.3,1.19A18.35,18.35,0,0,1,632,334.1a17.52,17.52,0,0,1,1.63,3.68c.16.6.32,1.16.41,1.71a13.12,13.12,0,0,1,.21,1.52c.06.46,0,.89.06,1.26a8.94,8.94,0,0,1,0,1,4.56,4.56,0,0,1-.09.81c-.07,0,.05-1.16-.16-3a13.09,13.09,0,0,0-.24-1.49,15.4,15.4,0,0,0-.43-1.68,18.63,18.63,0,0,0-1.62-3.61,19,19,0,0,0-2.42-3.14,16.87,16.87,0,0,0-1.26-1.18,14.72,14.72,0,0,0-1.19-.94C625.32,327.91,624.26,327.43,624.29,327.37Z" style="fill:#263238"></path></g><g id="freepik--speech-bubble--inject-20"><path d="M366.14,78.66l-2.91-5.94a21.31,21.31,0,1,0-3.87,6.57h0Z" style="fill:#fff"></path><path d="M366.14,78.66l-.42,0-1.28.14-5.07.53a.1.1,0,0,1-.09-.07s0,0,0,0h0l.12.08a21.2,21.2,0,0,1-11.71,7,23.36,23.36,0,0,1-3.52.43,21.21,21.21,0,0,1-15-5.29,21.6,21.6,0,0,1-5.45-7.4,21.25,21.25,0,0,1-1.79-9.58,20.87,20.87,0,0,1,2.87-9.8l.68-1.13.78-1.06.38-.53.44-.49.86-1c.3-.31.63-.59.94-.89a12.67,12.67,0,0,1,1-.84,20.24,20.24,0,0,1,2.09-1.48,21.88,21.88,0,0,1,9.28-3.18,21.48,21.48,0,0,1,16.49,5.54,21.11,21.11,0,0,1,4.67,6.18,23.32,23.32,0,0,1,1.34,3.3,26.87,26.87,0,0,1,.71,3.23,21.13,21.13,0,0,1-1.11,10.39v-.06l2.13,4.46.54,1.13c.12.25.17.38.17.38l-.2-.4c-.14-.26-.33-.64-.58-1.13-.5-1-1.24-2.47-2.2-4.38v0a21.15,21.15,0,0,0,1-10.3,26.59,26.59,0,0,0-.73-3.2A23.4,23.4,0,0,0,362.13,56a21.22,21.22,0,0,0-20.9-11.51,21.47,21.47,0,0,0-9.13,3.14A19.13,19.13,0,0,0,330.05,49a9.41,9.41,0,0,0-.95.83c-.31.29-.64.57-.93.87l-.85,1-.43.48-.38.52-.76,1-.67,1.11A21.1,21.1,0,0,0,324,73.93a21.14,21.14,0,0,0,12.62,11.49,21,21,0,0,0,7.55,1.07,24.18,24.18,0,0,0,3.48-.41,20.9,20.9,0,0,0,3.14-.91,21.45,21.45,0,0,0,8.51-5.93.08.08,0,0,1,.1,0,.08.08,0,0,1,0,.09h0l-.08-.1,5-.44,1.31-.1C366,78.66,366.14,78.66,366.14,78.66Z" style="fill:#263238"></path><polygon points="333.45 66.81 336.2 64.06 341.51 68.78 351.92 58.76 354.47 61.51 341.11 74.08 333.45 66.81" style="fill:#059669"></polygon></g><g id="freepik--Character--inject-20"><path d="M276.37,163.56c-.24.16-7.24,5.3-7.79,7.48s-.23,4.67.39,5.06,1.95,1.47,1.95,1.47l.7,1.33h2.8s-1.32,2.88.62,3.42a10,10,0,0,0,4.29,0s3.81,1.74,4.67,1,2.49-2.23,2.49-2.23l1.63-3.66-1.32-5,3.07-4.75-8.45-6.89Z" style="fill:#ae7461"></path><path d="M285.71,177.82a11.17,11.17,0,0,1-2.81,2.58,10.73,10.73,0,0,1-3.3,1.91,67.23,67.23,0,0,1,6.11-4.49Z" style="fill:#6f4439"></path><polygon points="470.89 118.48 480.81 115.36 486.01 124.05 471.72 131.67 470.89 118.48" style="fill:#ae7461"></polygon><path d="M483.24,109.8s4-5.4,5-5.9,7,.58,7.47,1.41a4.44,4.44,0,0,1,0,2.5s1.45-.17,1.86.83a4.57,4.57,0,0,1,0,2.49,2,2,0,0,1,.83,1.42,4,4,0,0,1-.33,1.53,2.47,2.47,0,0,1,.67,2.12c-.34,1.08-6.32,5.57-8.9,6.57s-4.49,2.16-6.15,1.16-2.91-8.23-2.91-8.23Z" style="fill:#ae7461"></path><path d="M498.25,113.45a30.7,30.7,0,0,1-5.38,2.11,2.13,2.13,0,0,1-2.35-.46,1.44,1.44,0,0,1-.25-1.11,1.89,1.89,0,0,1,.42-.85,2.45,2.45,0,0,1,1.09-.69c.28-.1.45-.11.46-.08s-.13.12-.38.26a3.07,3.07,0,0,0-.89.74,1.2,1.2,0,0,0-.07,1.43,1.68,1.68,0,0,0,1.82.26A32.67,32.67,0,0,1,498.25,113.45Z" style="fill:#6f4439"></path><path d="M489.65,108c-.14,0-.16-.54.1-1.09s.65-.86.76-.77-.07.5-.29,1S489.8,108,489.65,108Z" style="fill:#6f4439"></path><path d="M480.75,115.7s.75-5.9,1.16-6.65,2-1.24,2-1.24l11,.58s2.49,3-1.33,3.37a53.34,53.34,0,0,0-5.34.7s1.18,1.17.52,4.41-6.24,3.49-6.24,3.49Z" style="fill:#ae7461"></path><path d="M488.73,116.87s0-.44.08-1.21a8,8,0,0,0-.07-1.41,3.37,3.37,0,0,0-.65-1.66l-.2-.24.29-.06c1.3-.28,2.85-.49,4.58-.68a4.18,4.18,0,0,0,2.42-.7c.54-.59.07-1.64-.5-2.36l.19.1-2.62-.14L483.9,108H484a4.78,4.78,0,0,0-1.65.86,1.13,1.13,0,0,0-.38.68c-.08.28-.14.56-.2.83-.22,1.08-.39,2-.52,2.83l-.33,1.84a2.23,2.23,0,0,1-.15.64,2.08,2.08,0,0,1,0-.66c0-.43.1-1.06.2-1.86s.23-1.76.42-2.87c.05-.27.11-.56.18-.85a1.64,1.64,0,0,1,.48-.89,5.08,5.08,0,0,1,1.8-1h.08l8.35.41,2.62.14H495l.07.08a4.53,4.53,0,0,1,.76,1.42,1.66,1.66,0,0,1-.29,1.61,4.4,4.4,0,0,1-2.74.81c-1.73.17-3.28.35-4.56.57l.09-.29a3.52,3.52,0,0,1,.68,1.87,7.62,7.62,0,0,1,0,1.46,5.81,5.81,0,0,1-.17.9C488.78,116.77,488.75,116.87,488.73,116.87Z" style="fill:#6f4439"></path><path d="M498.48,116.41a13,13,0,0,1-4.51,2.27,2.61,2.61,0,0,1-2.09-.07,1.58,1.58,0,0,1-.67-.71,1.34,1.34,0,0,1-.07-.85,2.09,2.09,0,0,1,.57-1c.19-.18.31-.26.33-.23s-.38.48-.54,1.28a1,1,0,0,0,.61,1.08,2.29,2.29,0,0,0,1.71,0C496.41,117.32,498.41,116.28,498.48,116.41Z" style="fill:#6f4439"></path><path d="M497.12,110.84c0,.14-.61.34-1.39.56s-1.44.36-1.49.22.53-.5,1.35-.72S497.1,110.7,497.12,110.84Z" style="fill:#6f4439"></path><path d="M373.65,113.14,356,115.49,342.3,149.65s-14.78,28.17-18.59,38.23a22.24,22.24,0,0,0-1.47,9.86l69.82-22.83,13.44-26.19,7.81-22.93-9.64-2.68-2.59-3.91L379.79,109Z" style="fill:#059669"></path><path d="M441.9,126.13l-35.5-.42-2.73,23.94s37.29-4.11,43.3-6.17S482.4,129.2,482.4,129.2l-5-12.76Z" style="fill:#059669"></path><path d="M473.62,129.56a20.86,20.86,0,0,1-2.1-4.84,21.42,21.42,0,0,1-1.31-5.11,39.17,39.17,0,0,1,1.81,4.94A37.64,37.64,0,0,1,473.62,129.56Z" style="fill:#263238"></path><path d="M473.91,119.11c-.06,0,.33-.38,1-.11a1.26,1.26,0,0,1,.72.91,1.27,1.27,0,0,1-2.12,1.06,1.22,1.22,0,0,1-.29-1.12c.15-.67.66-.78.66-.72s-.28.27-.3.78a.92.92,0,0,0,.27.72.74.74,0,0,0,.85.06.76.76,0,0,0,.46-.72,1,1,0,0,0-.42-.64C474.29,119,473.93,119.18,473.91,119.11Z" style="fill:#263238"></path><path d="M373.14,181.45s.08-.16.28-.44l.87-1.19c.39-.52.86-1.15,1.37-1.91s1.13-1.6,1.74-2.57c1.27-1.92,2.66-4.29,4.12-7s3-5.67,4.41-8.87c2.91-6.4,5.24-12.33,6.95-16.61.84-2.09,1.53-3.8,2.05-5.07l.58-1.37a2.47,2.47,0,0,1,.23-.46,1.81,1.81,0,0,1-.13.5l-.5,1.4c-.47,1.29-1.11,3-1.89,5.13-1.62,4.32-3.89,10.28-6.82,16.7-1.46,3.2-3,6.2-4.46,8.88s-2.92,5-4.24,6.92c-.62,1-1.26,1.8-1.8,2.54s-1,1.37-1.45,1.86l-.95,1.14C373.27,181.34,373.15,181.47,373.14,181.45Z" style="fill:#263238"></path><path d="M396.52,129.57a4.81,4.81,0,0,1-.48-.8c-.31-.62-.71-1.39-1.19-2.31l.25,0c-1.54,1.43-3.72,3.4-6.26,5.68l-.17.15-.17-.18c-1.19-1.27-2.4-2.74-3.6-4.31-2.94-3.88-5.39-7.53-7.24-10.1l-2.21-3a6.31,6.31,0,0,1-.78-1.14,8.12,8.12,0,0,1,.94,1c.57.69,1.39,1.69,2.34,3,1.94,2.53,4.44,6.15,7.36,10,1.2,1.56,2.39,3,3.56,4.3l-.34,0c2.55-2.24,4.76-4.16,6.36-5.52l.16-.14.08.19c.43,1,.78,1.74,1.07,2.37A4,4,0,0,1,396.52,129.57Z" style="fill:#263238"></path><path d="M411.65,133.5a1.5,1.5,0,0,1-.13.45L411,135.2c-.42,1.08-1.05,2.64-1.86,4.55-1.61,3.82-3.95,9.05-6.67,14.76s-5.31,10.83-7.23,14.51c-.95,1.84-1.74,3.32-2.3,4.34l-.66,1.16c-.15.27-.24.4-.26.39a2.4,2.4,0,0,1,.17-.44l.57-1.21,2.16-4.41c1.83-3.71,4.36-8.85,7.08-14.56s5.11-10.91,6.8-14.69c.83-1.83,1.51-3.34,2-4.48l.56-1.21C411.55,133.64,411.63,133.49,411.65,133.5Z" style="fill:#263238"></path><g style="opacity:0.30000000000000004"><path d="M392,173.22a2.73,2.73,0,0,0-2.18-.34C372.14,175.2,362.24,179,345.48,185l45.6-9.74C392.06,174.91,392.55,173.73,392,173.22Z"></path></g><path d="M403.77,124.83a6.37,6.37,0,0,1-.29,2.13,15.45,15.45,0,0,1-2.17,4.85l-.21.31-.22-.31c-.19-.27-.39-.55-.58-.85a20.76,20.76,0,0,1-2.22-4.61l.38,0a18.16,18.16,0,0,1-1.6,2.94,18.56,18.56,0,0,1,1.23-3.13l.2-.45.18.48a24.8,24.8,0,0,0,2.27,4.47c.18.29.38.57.56.83h-.42A23.12,23.12,0,0,0,403.77,124.83Z" style="fill:#263238"></path><g style="opacity:0.30000000000000004"><path d="M404.58,149.54a14.7,14.7,0,0,0,7.66-16.41,132.54,132.54,0,0,0-7.93,16.08"></path></g><g style="opacity:0.30000000000000004"><path d="M375.44,114.35a88.37,88.37,0,0,0,12.84,21,38.9,38.9,0,0,0,6-6.31l2.25,1.88c-.38-1.23-.77-2.45-1.16-3.67-.07-.22-.18-.47-.4-.51a.64.64,0,0,0-.48.19l-6,4.68a127.18,127.18,0,0,1-13.28-17.29"></path></g><path d="M358.44,171.17a9,9,0,0,1-2.27-.48,41.86,41.86,0,0,1-10.26-4.49,8.34,8.34,0,0,1-1.89-1.35c.08-.13,3.09,1.72,7.08,3.46S358.48,171,358.44,171.17Z" style="fill:#263238"></path><path d="M367.23,167.22a3.38,3.38,0,0,1-1,0c-.61,0-1.5-.12-2.59-.25-2.19-.24-5.2-.69-8.49-1.39s-6.22-1.49-8.32-2.15c-1.05-.33-1.89-.61-2.47-.83a3.46,3.46,0,0,1-.88-.38,29.33,29.33,0,0,1,3.45.86c2.12.56,5.06,1.3,8.33,2s6.26,1.2,8.43,1.54A28,28,0,0,1,367.23,167.22Z" style="fill:#263238"></path><g style="opacity:0.30000000000000004"><path d="M344.34,162.58a33.09,33.09,0,0,0,25.33,5,124.06,124.06,0,0,1-25.33-5.09"></path></g><path d="M359.18,115.71c-4.77-1.47-19.86,5.08-19.86,5.08s-25.62,10.4-31,15.22-31.18,25.58-31.18,25.58l12.27,9.88,30.22-20.76,37-8.61s4.15-1.42,8.93-9S363.94,117.18,359.18,115.71Z" style="fill:#059669"></path><path d="M363.82,137.1c-.08-.06.9-1.35,2-3.71a17.63,17.63,0,0,0,1.31-4.3,13.65,13.65,0,0,0-.17-5.45,10.84,10.84,0,0,0-2.49-4.8,9.7,9.7,0,0,0-3.67-2.49,10.68,10.68,0,0,0-4.08-.59s.1-.05.28-.09a5.59,5.59,0,0,1,.84-.11,8.2,8.2,0,0,1,3.09.44,9.87,9.87,0,0,1,3.89,2.51,11,11,0,0,1,2.65,5,13.77,13.77,0,0,1,.14,5.66,17.83,17.83,0,0,1-1.45,4.38,19,19,0,0,1-1.58,2.67A4,4,0,0,1,363.82,137.1Z" style="fill:#263238"></path><g style="opacity:0.30000000000000004"><path d="M343.87,145.54s5.67,1.21,9.76-.51a39.88,39.88,0,0,0,7.21-4l-17,4.54"></path></g><path d="M289.71,165.64c-.07,0,.22-.44.89-.33a1.2,1.2,0,0,1,.9.68,1.25,1.25,0,0,1-1.74,1.53,1.2,1.2,0,0,1-.56-1c0-.68.42-.91.44-.84s-.19.32-.08.79a.92.92,0,0,0,.43.61.8.8,0,0,0,1.06-.93.9.9,0,0,0-.54-.51C290.05,165.49,289.75,165.7,289.71,165.64Z" style="fill:#263238"></path><path d="M296.63,166.11a45,45,0,0,1-5.33-4.3,46.38,46.38,0,0,1-5-4.7,45,45,0,0,1,5.33,4.3A46.38,46.38,0,0,1,296.63,166.11Z" style="fill:#263238"></path><path d="M277.18,161.59s.09,0,.24.15l.65.49,2.48,1.93,9,7.16h-.24l25.22-17.24,5.2-3.53,0,0h.06c11.11-2.08,20.78-4.67,27.75-6.39,3.48-.87,6.28-1.56,8.21-2l2.22-.5a7.39,7.39,0,0,1,.78-.15,3.79,3.79,0,0,1-.75.24l-2.2.59-8.18,2.17c-6.94,1.8-16.6,4.46-27.74,6.56l.1,0-5.19,3.53-25.3,17.13-.12.08-.11-.09-8.92-7.29-2.41-2-.62-.54A2,2,0,0,1,277.18,161.59Z" style="fill:#263238"></path><g style="opacity:0.30000000000000004"><path d="M342.65,119.44A19.52,19.52,0,0,0,353.41,121c6-.87,10.61-4.59,14.32-2.73s11.8,12.79,15.63,15.85,12.84,0,12.84,0h-5.46L383,128.25s-6.54-14.17-11.46-14.7-16.17,0-16.17,0Z"></path></g><path d="M395.18,131.4c-.48,1.33-3.16,1.73-4.93,1a11.51,11.51,0,0,1-3.84-3.61c-4-5.54-6.91-11.78-12.22-16.06-3.7-3-9.12-4-13.86-4.17s-9.47.56-14.22.58c-11.34.06-12.51-1.94-21.22-5.7l-6.4,4.07,3.67,7.17s20.1,6.27,28.41,4.62C359,117.6,364.73,115.43,369,117c9,3.33,13.21,15,18.46,17.17a12.72,12.72,0,0,0,9.45.11Z" style="fill:#455a64"></path><path d="M393.85,133.05l.42-4,1.52-1,2,.18,1.08,1.82s-.15,4.39-3.61,4.72Z" style="fill:#455a64"></path><path d="M396.37,134.42c-.1.1-.69-.33-1.3-1a4.44,4.44,0,0,0-.77-.7c-.21-.13-.38-.16-.39-.24s.19-.18.52-.1a2.16,2.16,0,0,1,1,.67C396.06,133.73,396.47,134.32,396.37,134.42Z" style="fill:#263238"></path><path d="M398.41,132.53c-.13.08-.81-.87-1.91-1.77s-2.14-1.41-2.08-1.56a5.45,5.45,0,0,1,4,3.33Z" style="fill:#263238"></path><path d="M421.07,81.31a4.13,4.13,0,0,0-1.61-7.67,4.94,4.94,0,0,0-6.11-5.89,5.55,5.55,0,0,0-6.56-2,4,4,0,0,0-5.15,5.53l15.75,17a4,4,0,0,0,3.68-7Z" style="fill:#263238"></path><path d="M405.77,69.57l-.84-.23c-9.22-2-16.05,4.72-17.79,14l-5.51,26.77,12.52,14.22,2.68,3.67,4.77-10.32s9.09,1.07,11.62-7.62c1.22-4.19,3-13,4.58-21A16.85,16.85,0,0,0,405.77,69.57Z" style="fill:#ae7461"></path><path d="M401.68,117.68a21.9,21.9,0,0,1-10.49-6.52s.27,7.54,9.18,9.17Z" style="fill:#6f4439"></path><path d="M413,96.13a1.28,1.28,0,0,1-1.55.92,1.22,1.22,0,0,1-1-1.47,1.29,1.29,0,0,1,1.54-.93A1.24,1.24,0,0,1,413,96.13Z" style="fill:#263238"></path><path d="M414.74,92.74c-.19.12-.94-.84-2.28-1.21s-2.51,0-2.61-.17.19-.35.7-.54a3.6,3.6,0,0,1,2.14-.06,3.41,3.41,0,0,1,1.77,1.17C414.78,92.36,414.84,92.69,414.74,92.74Z" style="fill:#263238"></path><path d="M401.08,92.92a1.3,1.3,0,0,1-1.55.92,1.23,1.23,0,0,1-1-1.48,1.3,1.3,0,0,1,1.55-.92A1.24,1.24,0,0,1,401.08,92.92Z" style="fill:#263238"></path><path d="M401.51,89.33c-.2.12-.95-.84-2.29-1.21s-2.5,0-2.6-.17.18-.34.7-.54a3.6,3.6,0,0,1,2.14-.06,3.41,3.41,0,0,1,1.77,1.17C401.55,89,401.61,89.28,401.51,89.33Z" style="fill:#263238"></path><path d="M403.61,100.61a9.56,9.56,0,0,1,2.29.22c.35.06.69.08.81-.14a1.84,1.84,0,0,0,.06-1.08c-.09-.91-.19-1.87-.29-2.88a47.89,47.89,0,0,1-.38-7.44c.17,0,.6,3.29,1,7.39.08,1,.16,2,.24,2.89a2,2,0,0,1-.2,1.39.85.85,0,0,1-.7.34,2.08,2.08,0,0,1-.6-.08A8.83,8.83,0,0,1,403.61,100.61Z" style="fill:#263238"></path><path d="M403.32,84.18c-.24.33-1.53-.21-3.15-.46s-3-.17-3.13-.56c-.05-.18.27-.46.88-.67a5.26,5.26,0,0,1,2.48-.16,5.1,5.1,0,0,1,2.3.94C403.21,83.66,403.42,84,403.32,84.18Z" style="fill:#263238"></path><path d="M415.33,88.73c-.32.24-1.16-.34-2.26-.66s-2.11-.36-2.23-.74c-.06-.18.18-.45.67-.62a3.39,3.39,0,0,1,3.62,1.13C415.43,88.26,415.47,88.61,415.33,88.73Z" style="fill:#263238"></path><path d="M386.19,92.2a2.46,2.46,0,0,0-1.92-3c-1.67-.3-3.74.12-4.56,3.51-1.47,6,4.87,6.24,4.92,6.07S385.6,94.72,386.19,92.2Z" style="fill:#ae7461"></path><path d="M383.88,96.21s-.13.05-.32.08a1.07,1.07,0,0,1-.79-.17,2.66,2.66,0,0,1-.63-2.62,3.52,3.52,0,0,1,.66-1.42,1.25,1.25,0,0,1,1-.62.57.57,0,0,1,.55.44c0,.19,0,.3,0,.32s.15-.07.16-.33a.67.67,0,0,0-.14-.44.82.82,0,0,0-.54-.29,1.5,1.5,0,0,0-1.32.67,3.5,3.5,0,0,0-.77,1.58,2.79,2.79,0,0,0,.89,3,1.16,1.16,0,0,0,1,.07C383.83,96.35,383.89,96.22,383.88,96.21Z" style="fill:#6f4439"></path><path d="M416.29,75.23a1.94,1.94,0,0,0-.09-.48,4,4,0,0,0-2.51-2.52,15.06,15.06,0,0,0-1.82-1.44A5.38,5.38,0,0,0,403.16,68l-.77-.09a5.5,5.5,0,0,0-8.68,0,4,4,0,0,0-5.89,4.39A3.76,3.76,0,0,0,385,74.66a2.2,2.2,0,0,0,1.56,2.76,60.15,60.15,0,0,0-2.31,9.25c-.61,3.51,1.45,4.77,1.32,5.61-1.19,7.29,2.52,4.22,7.41-9.62a1.65,1.65,0,0,0,1.26-.88c.19-.39.22-.9.58-1.15s1,0,1.49.19a3.94,3.94,0,0,0,4.7-1.63,1.66,1.66,0,0,0,2.09.8,9,9,0,0,0,2.1-1.29,2.55,2.55,0,0,1,2.33-.45c.42.18.76.56,1.22.64.8.15,1.43-.66,1.77-1.4a3.54,3.54,0,0,1,1.18-1.71,4.48,4.48,0,0,1,1.55,0c.29.12.59.26.87.39a3.76,3.76,0,0,0,.4.13,4.06,4.06,0,0,1,.49.38c2.28,2,3.06,8.1,3.06,8.1C419.22,81.36,418.14,78,416.29,75.23Z" style="fill:#263238"></path><path d="M412,73.9s0,0,0,.11a2.7,2.7,0,0,1-.13.3,3.75,3.75,0,0,1-.75,1,4.45,4.45,0,0,1-1.71,1,4.06,4.06,0,0,1-2.63,0l.13-.1a2.21,2.21,0,0,1-.57,1.61,6.62,6.62,0,0,1-1.43,1.18,5.4,5.4,0,0,1-.86.5,2.16,2.16,0,0,1-1,.09,2.25,2.25,0,0,1-1.72-1.22h.24A4.65,4.65,0,0,1,398.75,81a3.38,3.38,0,0,1-2.13.1,6.14,6.14,0,0,1-1.81-1l.18,0a5,5,0,0,1-1.92,1.45,2.62,2.62,0,0,1-2.24,0A3.41,3.41,0,0,1,389,78.3l.12.1a3.17,3.17,0,0,1-2.13-.27,3.42,3.42,0,0,1-1.25-1,3,3,0,0,1-.47-.92,1.41,1.41,0,0,1-.06-.35,3.44,3.44,0,0,0,.61,1.2,3.4,3.4,0,0,0,1.23,1,3.08,3.08,0,0,0,2,.21l.13,0v.14a3.2,3.2,0,0,0,1.73,3,2.37,2.37,0,0,0,2,0A4.74,4.74,0,0,0,394.78,80l.08-.1.1.08a5.85,5.85,0,0,0,1.73.91,3.17,3.17,0,0,0,2-.09,4.41,4.41,0,0,0,2.6-2.42l.12-.27.13.27A2,2,0,0,0,403,79.43a1.91,1.91,0,0,0,.92-.08,4.41,4.41,0,0,0,.81-.46,6.23,6.23,0,0,0,1.38-1.13,2,2,0,0,0,.55-1.45v-.16l.14.06a4,4,0,0,0,2.52,0,4.54,4.54,0,0,0,1.68-1A5,5,0,0,0,412,73.9Z" style="fill:#455a64"></path><path d="M400.66,101.8a1,1,0,0,0-.5-.18c-.29,0-.5.3-.63.56a3.5,3.5,0,0,0-.15,2.88,1.7,1.7,0,0,0,.74.81,2.57,2.57,0,0,0,3.33-.88l.83-1.19C403.5,103.34,401.44,102.26,400.66,101.8Z" style="fill:#6f4439"></path><path d="M404.33,103.79a2.9,2.9,0,0,1-1.37-.51,16,16,0,0,0-3.12-1.5l.28-.12c-.1.18-.21.38-.31.58a3.44,3.44,0,0,0-.43,2,1.79,1.79,0,0,0,.84,1.32c.83.47,1.52.53,1.49.62a2.56,2.56,0,0,1-1.68-.3,2.13,2.13,0,0,1-1.12-1.56,3.7,3.7,0,0,1,.43-2.28c.11-.22.22-.43.33-.62l.1-.18.18.06a11.55,11.55,0,0,1,3.19,1.71A8.88,8.88,0,0,1,404.33,103.79Z" style="fill:#263238"></path><path d="M460.48,240.31l16.71,20L506,233.45c-2.73-2.59-22.77,5.76-22.77,5.76L474,228.55Z" style="fill:#263238"></path><path d="M473.15,246.25a1.61,1.61,0,0,0,.44,2.1,1.55,1.55,0,0,0,2.08-.41,1.69,1.69,0,0,0-.47-2.22,1.59,1.59,0,0,0-2.12.67" style="fill:#e0e0e0"></path><path d="M477.19,260.27l-2.29-2.41,28.68-24.73s1.8-.62,2.49.42Z" style="fill:#e0e0e0"></path><path d="M483.55,238.63c.12.14-.52.86-.79,2s-.09,2-.27,2.09-.73-.94-.38-2.26S483.46,238.47,483.55,238.63Z" style="fill:#e0e0e0"></path><path d="M487.73,237.06c.16.11-.23.91-.15,1.95s.52,1.8.38,1.93-1-.59-1-1.89S487.6,236.93,487.73,237.06Z" style="fill:#e0e0e0"></path><path d="M492.81,239.08c-.1.15-.95-.37-1.3-1.48s0-2,.18-2,.15.85.45,1.75S492.94,238.94,492.81,239.08Z" style="fill:#e0e0e0"></path><path d="M480.13,235.47c.06.18-.76.59-1.51,1.38s-1.13,1.62-1.31,1.57-.06-1.11.83-2S480.1,235.29,480.13,235.47Z" style="fill:#e0e0e0"></path><path d="M476.26,232.69c.06.06-.41.66-1.44,1.34a9.49,9.49,0,0,1-1.94.94,10.66,10.66,0,0,1-1.24.33,2.42,2.42,0,0,1-.75.07.84.84,0,0,1-.76-.69,1.07,1.07,0,0,1,.31-.9,3,3,0,0,1,.61-.43,7.17,7.17,0,0,1,1.19-.52,6.6,6.6,0,0,1,2.14-.37,3.38,3.38,0,0,1,1.94.38c0,.11-.76,0-1.91.09a7.91,7.91,0,0,0-2,.48,6.41,6.41,0,0,0-1.06.51c-.38.21-.64.45-.59.65s0,.11.18.14a2.32,2.32,0,0,0,.55-.05c.41-.08.8-.17,1.17-.28a11.07,11.07,0,0,0,1.89-.76A14.44,14.44,0,0,1,476.26,232.69Z" style="fill:#e0e0e0"></path><path d="M476.27,233.06c0,.07-.78-.17-1.68-1a6.39,6.39,0,0,1-1.27-1.76,6.28,6.28,0,0,1-.45-1.22,1.6,1.6,0,0,1,.24-1.58.93.93,0,0,1,1-.16,2.93,2.93,0,0,1,.64.39,4.09,4.09,0,0,1,.9,1,4.59,4.59,0,0,1,.78,2.07c.13,1.27-.3,2-.36,1.94a14.45,14.45,0,0,0-.11-1.87,4.53,4.53,0,0,0-.81-1.78,4.08,4.08,0,0,0-.8-.81c-.33-.26-.67-.4-.76-.26a1.14,1.14,0,0,0-.06.94,6.29,6.29,0,0,0,.37,1.11,7,7,0,0,0,1.06,1.7C475.69,232.58,476.33,233,476.27,233.06Z" style="fill:#e0e0e0"></path><path d="M291.79,285.65l-25,7.26,12.94,37.15c3.48-1.45,3.91-23.15,3.91-23.15l13.47-4.16Z" style="fill:#263238"></path><path d="M281.25,294.85a1.61,1.61,0,0,0-2.1-.44,1.53,1.53,0,0,0-.46,2.07,1.68,1.68,0,0,0,2.22.46,1.6,1.6,0,0,0,.24-2.21" style="fill:#e0e0e0"></path><path d="M266.79,292.91l3.13-1.13L281,328s-.16,1.9-1.39,2.11Z" style="fill:#e0e0e0"></path><path d="M284,307.44c-.19.06-.58-.82-1.48-1.51s-1.82-.9-1.81-1.09,1.16-.29,2.23.57S284.22,307.42,284,307.44Z" style="fill:#e0e0e0"></path><path d="M283.78,311.9c-.16.1-.74-.57-1.72-.92s-1.86-.25-1.91-.43.93-.66,2.14-.2S284,311.84,283.78,311.9Z" style="fill:#e0e0e0"></path><path d="M279.89,315.74c-.1-.15.72-.72,1.88-.6s1.84.83,1.72,1-.84-.21-1.79-.3S280,315.91,279.89,315.74Z" style="fill:#e0e0e0"></path><path d="M288.3,305.59c-.19,0-.23-.94-.66-1.94s-1-1.69-.9-1.84,1,.4,1.52,1.58S288.48,305.63,288.3,305.59Z" style="fill:#e0e0e0"></path><path d="M292.4,303.17a3.75,3.75,0,0,1-.63-1.86,8.78,8.78,0,0,1-.08-2.16,8.49,8.49,0,0,1,.19-1.27,2.38,2.38,0,0,1,.24-.71.84.84,0,0,1,.94-.42,1,1,0,0,1,.69.65,2.71,2.71,0,0,1,.15.73,7.05,7.05,0,0,1,0,1.3,6.71,6.71,0,0,1-.53,2.11c-.49,1.14-1.07,1.67-1.13,1.62s.34-.68.69-1.79a7.78,7.78,0,0,0,.36-2,9.66,9.66,0,0,0,0-1.19c0-.43-.15-.76-.36-.8s-.11,0-.2.11a2.26,2.26,0,0,0-.17.52,11,11,0,0,0-.22,1.18,10.29,10.29,0,0,0-.06,2A13.26,13.26,0,0,1,292.4,303.17Z" style="fill:#e0e0e0"></path><path d="M292.06,303c-.05,0,.48-.64,1.63-1.11a6.33,6.33,0,0,1,2.12-.46,7.26,7.26,0,0,1,1.3.08,1.63,1.63,0,0,1,1.35.86.92.92,0,0,1-.25,1,2.74,2.74,0,0,1-.61.43,4.41,4.41,0,0,1-1.26.44,4.46,4.46,0,0,1-2.19-.13c-1.22-.39-1.7-1.07-1.64-1.11a15.15,15.15,0,0,0,1.75.65,4.48,4.48,0,0,0,2,0,3.64,3.64,0,0,0,1.06-.41c.38-.19.64-.45.55-.58s-.47-.4-.83-.44a6,6,0,0,0-1.17-.11,7.23,7.23,0,0,0-2,.28C292.74,302.68,292.12,303.11,292.06,303Z" style="fill:#e0e0e0"></path><path d="M320.29,199.7s-2.4,11.86,1,21.17,6.54,11.7,6.54,11.7l2.93,33.89-2.93.89L281,284.92l6.3,24.29s61.67-21.12,66.33-25.78,5.07-10.33,6.31-21.2.88-47.85.88-47.85l-24.47-26.15L321,194.8" style="fill:#263238"></path><path d="M323.11,209.33c.55,7.7,8.83,21.65,29,15.95s59.57-23.78,59.57-23.78l2.59.65,51,49,19.4-20L430.91,176.6a20.71,20.71,0,0,0-17-6.22,13.15,13.15,0,0,0-1.35.22c-3.7.86-65.5,14.24-65.5,14.24l-6.53,1.65-18.64,7.88Z" style="fill:#263238"></path><path d="M419.82,188.21a7.13,7.13,0,0,1-.48,2.2,25.26,25.26,0,0,1-2.17,5,26.85,26.85,0,0,1-3.17,4.43,7.39,7.39,0,0,1-1.65,1.54,61.88,61.88,0,0,0,4.37-6.23A65.68,65.68,0,0,0,419.82,188.21Z" style="fill:#455a64"></path><path d="M342.3,200a10.11,10.11,0,0,1-1.33,2.11,43.17,43.17,0,0,1-3.91,4.6,42.48,42.48,0,0,1-4.52,4,10.29,10.29,0,0,1-2.08,1.37,15,15,0,0,1,1.85-1.66c1.17-1,2.74-2.41,4.38-4.08s3-3.27,4-4.45A14,14,0,0,1,342.3,200Z" style="fill:#455a64"></path><path d="M328.84,230.15a34.08,34.08,0,0,0,23.31.44" style="fill:#263238"></path><path d="M352.15,230.59a2.9,2.9,0,0,1-.86.38,20.12,20.12,0,0,1-2.45.76,32.12,32.12,0,0,1-16.74-.32,23.19,23.19,0,0,1-2.41-.84,3.62,3.62,0,0,1-.85-.42c0-.08,1.28.38,3.36.91a36.75,36.75,0,0,0,16.56.31C350.86,230.92,352.12,230.51,352.15,230.59Z" style="fill:#455a64"></path><path d="M340.5,186.49l.83-.24,2.45-.64c1.08-.27,2.41-.65,4-1l5.51-1.22,35.33-7.76c7.5-1.63,15.68-3.47,24.57-5.34a20.46,20.46,0,0,1,13.62,2.81,26.17,26.17,0,0,1,5.65,4.77l5.32,5.38,47.07,47.66.18.18-.18.19-11.52,11.91-7.87,8.13-.18.19-.19-.18-51-49,.1.06-2.59-.65h.16C397.93,208,385,213.49,373.42,218c-5.8,2.26-11.28,4.29-16.43,5.94a72,72,0,0,1-7.5,2.08,31.27,31.27,0,0,1-7.08.67,20.23,20.23,0,0,1-11.32-3.67,19.49,19.49,0,0,1-5.84-6.65,19.17,19.17,0,0,1-1.9-5.18,11.58,11.58,0,0,1-.2-1.41c0-.32,0-.48,0-.48s0,.16.08.48a11,11,0,0,0,.24,1.39,19.67,19.67,0,0,0,7.79,11.68,19.94,19.94,0,0,0,11.2,3.56,31.19,31.19,0,0,0,7-.68c2.42-.51,4.9-1.28,7.47-2.1,5.13-1.67,10.6-3.71,16.39-6,11.59-4.57,24.48-10.08,38.34-16.39l.08,0,.08,0,2.58.64.07,0,0,0,51,49h-.37l7.87-8.13,11.53-11.92v.37l-47-47.7-5.32-5.39a26.24,26.24,0,0,0-5.54-4.72,20.09,20.09,0,0,0-13.33-2.77c-8.84,1.84-17.07,3.67-24.56,5.27l-35.36,7.61-5.53,1.17c-1.6.35-2.93.71-4,1l-2.47.59Z" style="fill:#455a64"></path><g style="opacity:0.30000000000000004"><path d="M333.51,224.41s6.43,5.59,14.6,4.94a49.64,49.64,0,0,0,12.79-2.44v-4.42S345,229.6,333.51,224.41Z"></path></g></g></svg>