<svg xmlns="http://www.w3.org/2000/svg" xmlns:xlink="http://www.w3.org/1999/xlink" viewBox="0 0 347.77 106.67"><defs><style>.cls-1{fill:none;}.cls-2{isolation:isolate;}.cls-3{clip-path:url(#clip-path);}.cls-4{mix-blend-mode:multiply;}.cls-5{clip-path:url(#clip-path-3);}.cls-6{clip-path:url(#clip-path-4);}.cls-7{fill:url(#linear-gradient);}.cls-8{clip-path:url(#clip-path-5);}.cls-9{fill:url(#linear-gradient-2);}.cls-10{clip-path:url(#clip-path-7);}.cls-11{clip-path:url(#clip-path-8);}.cls-12{fill:url(#linear-gradient-3);}.cls-13{fill:#221815;}</style><clipPath id="clip-path"><rect class="cls-1" x="-227.43" y="-246.28" width="841.89" height="595.28"/></clipPath><clipPath id="clip-path-3"><rect class="cls-1" x="6.71" y="1.72" width="64.33" height="49.29"/></clipPath><clipPath id="clip-path-4"><path class="cls-1" d="M23.2,2.72,7.87,11.6a2.3,2.3,0,0,0,0,4L68.75,50.81a1.53,1.53,0,0,0,2.3-1.33V29.08a5.14,5.14,0,0,0-2.57-4.45L30.65,2.72a7.45,7.45,0,0,0-7.45,0"/></clipPath><linearGradient id="linear-gradient" x1="314.22" y1="21.84" x2="315.22" y2="21.84" gradientTransform="matrix(64.34, 0, 0, -64.34, -20208.57, 1431.37)" gradientUnits="userSpaceOnUse"><stop offset="0" stop-color="#ff5042"/><stop offset="1" stop-color="#ff805b"/></linearGradient><clipPath id="clip-path-5"><path class="cls-1" d="M3.31,19.55V90.28A4.45,4.45,0,0,0,5.5,94.12l17.17,10.17a2.09,2.09,0,0,0,3.15-1.8V30.35a3.36,3.36,0,0,0-1.68-2.92l-17.22-10a2.44,2.44,0,0,0-1.2-.33,2.41,2.41,0,0,0-2.41,2.41"/></clipPath><linearGradient id="linear-gradient-2" x1="321.47" y1="29.04" x2="322.47" y2="29.04" gradientTransform="matrix(249.71, 0, 0, -249.71, -80380.46, 7312.94)" gradientUnits="userSpaceOnUse"><stop offset="0" stop-color="#3d9970"/><stop offset="1" stop-color="#04c8ce"/></linearGradient><clipPath id="clip-path-7"><rect class="cls-1" x="27.72" y="27.23" width="43.33" height="48.64"/></clipPath><clipPath id="clip-path-8"><path class="cls-1" d="M68.74,27.44,29.66,50a3.87,3.87,0,0,0-1.94,3.35v20.4A2.17,2.17,0,0,0,31,75.58L68.89,53.4a4.36,4.36,0,0,0,2.16-3.76V28.78a1.54,1.54,0,0,0-2.31-1.34"/></clipPath><linearGradient id="linear-gradient-3" x1="330.4" y1="46.47" x2="331.4" y2="46.47" gradientTransform="matrix(0, -30.29, -30.29, 0, 1456.88, 10111.96)" gradientUnits="userSpaceOnUse"><stop offset="0" stop-color="#f08118"/><stop offset="1" stop-color="#ffb200"/></linearGradient></defs><title>p1  (加粗)</title><g class="cls-2"><g id="Layer_1" data-name="Layer 1"><g class="cls-3"><g class="cls-3"><g class="cls-4"><g class="cls-5"><g class="cls-6"><rect class="cls-7" x="6.33" y="1.39" width="64.72" height="50.01"/></g></g></g></g><g class="cls-8"><rect class="cls-9" x="-29.49" y="49.6" width="88.11" height="23.06" transform="translate(-46.65 75.31) rotate(-89.64)"/></g><g class="cls-3"><g class="cls-4"><g class="cls-10"><g class="cls-11"><rect class="cls-12" x="16.5" y="19.26" width="65.76" height="64.75" transform="matrix(0.62, -0.78, 0.78, 0.62, -21.76, 58.26)"/></g></g></g><path class="cls-13" d="M85.74,89.28a1.14,1.14,0,0,1-1.14-1.14V29a3.89,3.89,0,0,1,4-3.8h19.76a7.33,7.33,0,0,1,5,1.8,6.28,6.28,0,0,1,2.15,4.89V59.12A6.32,6.32,0,0,1,113.38,64a7.29,7.29,0,0,1-5.06,1.85H95.45V88.14a1.14,1.14,0,0,1-1.14,1.14Zm18.93-54.39H95.45V56.16h9.22Z"/><path class="cls-13" d="M112.61,27.89a6.25,6.25,0,0,0-4.29-1.52H88.56A2.75,2.75,0,0,0,85.74,29v59.1h8.57V64.72h14a6.2,6.2,0,0,0,4.3-1.55,5.24,5.24,0,0,0,1.76-4.05V31.93a5.22,5.22,0,0,0-1.77-4m-6.8,29.41H94.31V33.75h11.5Z"/><path class="cls-13" d="M149.74,89.28a1.14,1.14,0,0,1-1.06-.73L137.32,59V88.14a1.13,1.13,0,0,1-1.13,1.14h-8.57a1.14,1.14,0,0,1-1.14-1.14V29a3.89,3.89,0,0,1,4-3.8h20.43a7.27,7.27,0,0,1,5,1.81A6.33,6.33,0,0,1,158,31.93v22.4c0,2-.86,6.7-8.7,6.77q4.94,12.34,9.82,24.75l.74,1.88a1.15,1.15,0,0,1-.12,1,1.14,1.14,0,0,1-.94.5ZM137.32,52.61l.42-.56a1.16,1.16,0,0,1,.91-.45h8.53V34.89h-9.86Z"/><path class="cls-13" d="M147.64,59.93l1.51,0c6.73,0,7.73-3.53,7.73-5.64V31.93a5.19,5.19,0,0,0-1.74-4,6.13,6.13,0,0,0-4.27-1.53H130.44A2.75,2.75,0,0,0,127.62,29V88.15h8.57V33.75h12.12v19h-9.66L137,55l12.75,33.2h9.08l-.74-1.88q-5.21-13.2-10.44-26.34"/><path class="cls-13" d="M171.24,89.28a1.14,1.14,0,0,1-1.13-1.14V29a3.88,3.88,0,0,1,3.95-3.8h5.76A1.12,1.12,0,0,1,181,26.37V88.14a1.13,1.13,0,0,1-1.13,1.14Z"/><path class="cls-13" d="M171.24,29v59.1h8.58V26.37h-5.76A2.76,2.76,0,0,0,171.24,29"/><path class="cls-13" d="M218.12,89.28a1.13,1.13,0,0,1-1.05-.71l-.35-.86L204.14,56.4V88.14A1.14,1.14,0,0,1,203,89.28h-8.25a1.14,1.14,0,0,1-1.13-1.14V29a3.88,3.88,0,0,1,4-3.8h3.86a1.13,1.13,0,0,1,1.05.71l12.58,31.39v-31a1.13,1.13,0,0,1,1.14-1.13h8.24a1.12,1.12,0,0,1,1.13,1.13V88.14a1.13,1.13,0,0,1-1.13,1.14Z"/><path class="cls-13" d="M216.21,63.22,201.44,26.37h-3.86A2.76,2.76,0,0,0,194.76,29V88.15H203V50.53l14.76,36.75.35.87h6.33V26.37h-8.24Z"/><path class="cls-13" d="M245.53,89.28a1.14,1.14,0,0,1-1.14-1.14V34.89h-9a1.14,1.14,0,0,1-1.14-1.14V29a3.89,3.89,0,0,1,4-3.8h26a1.13,1.13,0,0,1,1.13,1.13v7.38a1.14,1.14,0,0,1-1.13,1.14h-9V88.14a1.13,1.13,0,0,1-1.13,1.14Z"/><path class="cls-13" d="M235.35,29v4.71h10.18V88.14h8.57V33.75h10.1V26.37h-26A2.75,2.75,0,0,0,235.35,29"/><path class="cls-13" d="M283.61,89.28a1.14,1.14,0,0,1-1.14-1.14v-24a36.83,36.83,0,0,0-1.63-5.33c-1.51-4.11-2.09-5.69-2.2-6l-8-24.31a1,1,0,0,1-.06-.35V26.37a1.13,1.13,0,0,1,1.14-1.13H280a1.14,1.14,0,0,1,1.09.8L288,48.56,294.72,26a1.14,1.14,0,0,1,1.09-.8h8.28a1.15,1.15,0,0,1,.82.34,1.18,1.18,0,0,1,.31.83l-.09,2.15a1.12,1.12,0,0,1-.05.31l-7.93,23.88c-1,2.41-2.28,6.26-3.83,11.52V88.14a1.14,1.14,0,0,1-1.14,1.14Z"/><path class="cls-13" d="M288,52.48,280,26.37h-8.3v1.71l8,24.31c.1.33.73,2,2.18,6A38.9,38.9,0,0,1,283.61,64V88.15h8.57v-24c1.59-5.39,2.9-9.32,3.9-11.72L304,28.51l.09-2.14h-8.28Z"/><path class="cls-13" d="M321.24,89.28a7.26,7.26,0,0,1-5-1.82,6.32,6.32,0,0,1-2.11-4.88V31.93a6.42,6.42,0,0,1,2.11-4.88,7.32,7.32,0,0,1,5-1.81h16.48a7.16,7.16,0,0,1,5,1.83,6.32,6.32,0,0,1,2.08,4.86V46.35a1.13,1.13,0,0,1-1.13,1.13h-8.58A1.13,1.13,0,0,1,334,46.35V34.89h-9.06V51.75h13a7.23,7.23,0,0,1,5,1.8A6.28,6.28,0,0,1,345,58.4V82.58a6.37,6.37,0,0,1-2.08,4.87,7.22,7.22,0,0,1-5,1.83Zm12.92-27.95h-9.23V79.62h9.23Z"/><path class="cls-13" d="M342.14,54.39h0a6.18,6.18,0,0,0-4.26-1.51H323.8V33.75h11.32v12.6h8.58V31.93a5.24,5.24,0,0,0-1.72-4,6.11,6.11,0,0,0-4.26-1.53H321.24A6.21,6.21,0,0,0,317,27.89a5.26,5.26,0,0,0-1.74,4V82.58a5.23,5.23,0,0,0,1.75,4,6.17,6.17,0,0,0,4.27,1.52h16.64a6.08,6.08,0,0,0,4.27-1.53,5.23,5.23,0,0,0,1.71-4V58.41a5.22,5.22,0,0,0-1.72-4m-6.85,26.37H323.8V60.19h11.49Z"/></g></g></g></g></svg>