<?xml version="1.0" encoding="utf-8"?>
<!-- Generator: Adobe Illustrator 25.0.1, SVG Export Plug-In . SVG Version: 6.00 Build 0)  -->
<svg version="1.1" id="图层_1" xmlns="http://www.w3.org/2000/svg" xmlns:xlink="http://www.w3.org/1999/xlink" x="0px" y="0px"
	 viewBox="0 0 600 300" style="enable-background:new 0 0 600 300;" xml:space="preserve">
<style type="text/css">
	.st0{fill:#EBEBEB;}
	.st1{fill:#E0E0E0;}
	.st2{fill:#F5F5F5;}
	.st3{fill:#159066;}
	.st4{opacity:0.8;fill:#FFFFFF;enable-background:new    ;}
	.st5{fill:none;stroke:#273238;stroke-linecap:round;stroke-linejoin:round;}
	.st6{fill:#FFFFFF;}
	.st7{clip-path:url(#SVGID_2_);}
	.st8{fill:#273238;}
	.st9{fill:#273238;stroke:#273238;stroke-linecap:round;stroke-linejoin:round;}
	.st10{fill:#FFFFFF;stroke:#273238;stroke-linecap:round;stroke-linejoin:round;}
	.st11{fill:#F7F8F8;}
	.st12{fill:none;stroke:#FFFFFF;stroke-linecap:round;stroke-linejoin:round;}
	.st13{display:none;fill:#FFFFFF;}
	.st14{display:none;fill:#273238;}
	.st15{display:none;fill:#159066;}
	.st16{clip-path:url(#SVGID_4_);}
	.st17{fill:#75539F;}
	.st18{clip-path:url(#SVGID_6_);}
	.st19{clip-path:url(#SVGID_8_);}
	.st20{fill:url(#SVGID_9_);}
	.st21{clip-path:url(#SVGID_11_);}
	.st22{fill:url(#SVGID_12_);}
	.st23{clip-path:url(#SVGID_14_);}
	.st24{clip-path:url(#SVGID_16_);}
	.st25{fill:url(#SVGID_17_);}
</style>
<g id="图层_2">
	<path class="st0" d="M526.2,204.5c3.9-2,8.6-2.3,13-1.6c2.4,0.4,4.8,1.1,6.4,2.9c1.6,1.8,1.9,4.9,0.1,6.4c-1.1,0.9-2.6,1-4,1
		c-3.4,0-7.2-0.6-10,1.4c-1.6,1.2-2.6,3.1-4.5,3.7c-1.9,0.6-3.9-0.5-4.9-2.2c-0.9-1.7-1.1-3.7-0.5-5.6
		C522.2,208,523.8,205.7,526.2,204.5z"/>
	<path class="st0" d="M517.1,187c2.4,3.4,7.1,2.3,9.3,0.2c2.2-2.1,3.1-5.2,3.9-8.1c1.9-6.6,3.9-13.6,2.4-20.4c-0.3-2-1.2-4-2.6-5.5
		c-1.4-1.5-3.6-2.4-5.6-1.9c-2.4,0.6-3.9,2.9-4.9,5.2c-3.1,6.5-4.8,13.6-4.8,20.9C514.9,180.7,515.3,184.2,517.1,187"/>
	<path class="st0" d="M510,201.9c2.6-3.1,3.1-7.7,1.9-11.6c-1.2-3.9-3.8-7.2-6.8-9.9c-3.6-3.2-7.7-5.6-12.3-7.2
		c-1.7-0.7-3.6-1-5.5-0.9c-1.9,0.1-3.6,1.2-4.6,2.8c-1.3,2.5-0.1,5.4,1.3,7.9c2.4,4.3,5.1,8.4,8,12.3c2.4,3.1,5.2,6.2,8.9,7.6
		c3.7,1.4,7.5,1.2,9.4-1.3"/>
	<path class="st1" d="M517,239c0.1-0.5,0.2-1,0.2-1.6c0.1-1.1,0.2-2.6,0.4-4.3c0.2-2.1,0.5-4.2,1-6.3c0.6-2.5,1.3-5,2.3-7.4
		c0.9-2.4,2.2-4.7,3.8-6.7c1.3-1.7,2.9-3,4.8-4c1.3-0.6,2.6-1.1,4-1.3c0.5,0,1.1-0.1,1.6-0.2c-0.5-0.1-1.1-0.1-1.6,0
		c-1.5,0.1-2.9,0.5-4.2,1.1c-2,0.9-3.7,2.3-5,4c-1.6,2.1-3,4.4-3.9,6.8c-1,2.4-1.7,5-2.3,7.5c-0.4,2.1-0.7,4.2-0.8,6.4
		c-0.1,1.8-0.2,3.3-0.2,4.3C516.9,238,516.9,238.5,517,239z"/>
	<path class="st1" d="M517.3,235.7c0-0.2,0.1-0.5,0-0.7c0-0.5,0-1.2,0-2.1c0-1.8,0-4.4,0.1-7.6c0.2-6.4,0.7-13.4,1.8-23.2
		c1-9.2,2.4-19.9,3.8-26.9c0.3-1.6,0.6-3,0.9-4.3c0.3-1.2,0.5-2.3,0.7-3.2l0.5-2c0.1-0.2,0.1-0.5,0.1-0.7c-0.1,0.2-0.2,0.4-0.3,0.7
		c-0.2,0.5-0.4,1.2-0.6,2c-0.3,0.9-0.5,1.9-0.9,3.2c-0.3,1.3-0.6,2.7-1,4.2c-1.8,8.2-3.1,16.6-4,24.9c-1.1,9.8-1.6,18.7-1.6,25.2
		c0,3.2,0,5.8,0.1,7.7c0.1,0.8,0.1,1.5,0.1,2.1C517.2,235.2,517.2,235.5,517.3,235.7z"/>
	<path class="st1" d="M516.8,228.5c0.1-0.7,0.1-1.4,0-2.2c-0.1-1.4-0.3-3.4-0.6-5.9c-0.5-2.9-1.1-5.8-1.9-8.6
		c-0.9-3.5-2.1-6.9-3.6-10.1c-3-7.1-7-12.8-10.5-16.4c-0.8-0.8-1.6-1.6-2.5-2.3c-0.4-0.3-0.7-0.6-1.1-0.9l-1-0.6
		c-0.6-0.4-1.2-0.8-1.8-1.2c-0.1,0.1,2.6,1.7,6,5.3c4.3,4.8,7.8,10.3,10.2,16.3c1.4,3.3,2.6,6.6,3.6,10.1c0.9,3.2,1.6,6,2,8.5
		c0.5,2.4,0.7,4.4,0.9,5.8C516.5,227.1,516.6,227.8,516.8,228.5z"/>
	<polygon class="st1" points="500.7,248.9 502.4,272.6 532.8,272.6 534.5,248.9 	"/>
	<rect x="497.7" y="239.6" class="st1" width="40.4" height="9.3"/>
	<polygon class="st0" points="497.7,271.6 497.7,274.2 499.6,274.2 537.4,274.2 537.4,271.6 	"/>
	<polygon class="st1" points="501.5,278.8 499.6,274.2 536,274.2 533.8,278.8 	"/>
	<path class="st2" d="M533.9,256.6c0,0,0,0.1-0.1,0.2l-0.5,0.6l-1.8,2.3l-0.1,0.1l-0.1-0.1l-4.4-6h0.3l-4.3,6.1l-0.1,0.2l-0.1-0.2
		l-5.1-6h0.3l-0.3,0.3l-4.5,5.7L513,260l-0.1-0.2l-4.3-6.1h0.3l-5.3,6l-0.1,0.1l-0.1-0.1l-1.7-2.8c-0.2-0.3-0.3-0.5-0.4-0.7
		c-0.1-0.1-0.1-0.2-0.1-0.3c0,0,0.1,0.1,0.2,0.2l0.5,0.7l1.7,2.7h-0.2c1.3-1.6,3.1-3.6,5.2-6.1l0.1-0.2l0.1,0.2l4.3,6h-0.3l4.5-5.7
		c0.1-0.1,0.2-0.2,0.3-0.4l0.1-0.2l0.1,0.2l5.1,6.1h-0.3c1.6-2.2,3-4.2,4.3-6l0.1-0.2l0.1,0.2c1.7,2.4,3.2,4.5,4.3,6.1h-0.2l1.8-2.2
		l0.5-0.6C533.9,256.7,533.9,256.6,533.9,256.6z"/>
	<path class="st2" d="M534.9,248.8c0,0.1-7.6,0.2-17,0.2s-17-0.1-17-0.2s7.6-0.2,17-0.2S534.9,248.6,534.9,248.8z"/>
	<path class="st2" d="M536.4,274.5c0,0.1-8.3,0.2-18.5,0.2c-10.2,0-18.5-0.1-18.5-0.2c0-0.1,8.3-0.2,18.5-0.2
		C528.2,274.3,536.4,274.4,536.4,274.5z"/>
	<path class="st1" d="M84.3,104.4c3.1-1.9,6.4-3.3,9.9-4.3l2-9.8l16.6-0.3l2.4,9.7c3.5,0.9,6.9,2.2,10.1,4l8.4-5.5l11.9,11.5
		l-5.2,8.6c1.9,3.1,3.3,6.4,4.3,9.9l9.8,2l0.3,16.6l-9.7,2.4c-0.9,3.5-2.2,6.9-3.9,10l5.5,8.4l-11.5,12l-8.6-5.2
		c-3.1,1.9-6.4,3.3-9.9,4.3l-2,9.8L98,188.7l-2.4-9.8c-3.5-0.9-6.9-2.2-10.1-4l-8.4,5.6L65.2,169l5.2-8.6c-1.9-3.1-3.3-6.4-4.3-9.9
		l-9.8-2L56,132l9.7-2.4c0.9-3.5,2.2-6.9,4-10l-5.5-8.4l11.5-11.9l8.6,5.2L84.3,104.4z M93.1,126.5c-6.8,7.1-6.6,18.3,0.4,25.1
		s18.3,6.6,25.1-0.4c6.8-7.1,6.6-18.3-0.4-25.1C111.2,119.2,99.9,119.4,93.1,126.5C93.1,126.5,93.1,126.5,93.1,126.5z"/>
	<path class="st1" d="M93.1,126.5c0.9-1.1,2.1-2.1,3.3-2.9c3.4-2.2,7.5-3.2,11.6-2.7c2.8,0.3,5.5,1.3,7.9,2.8
		c2.7,1.8,4.9,4.3,6.4,7.2c0.8,1.6,1.3,3.3,1.6,5c0.3,1.8,0.4,3.7,0.1,5.5c-1,7.9-7.1,14.2-15,15.5c-1.8,0.3-3.7,0.4-5.5,0.1
		c-1.7-0.2-3.4-0.7-5-1.4c-3-1.3-5.5-3.5-7.4-6.1c-1.6-2.3-2.7-5-3.1-7.8c-0.6-4,0.2-8.2,2.3-11.7C91.1,128.6,92,127.4,93.1,126.5
		c0.1,0.1-1,1.2-2.4,3.6c-1.9,3.5-2.6,7.5-2,11.4c0.9,5.8,4.8,10.8,10.1,13.1c3.1,1.4,6.6,1.8,10,1.2c7.4-1.3,13.2-7.2,14.2-14.7
		c0.3-1.7,0.2-3.5-0.1-5.2c-0.3-1.6-0.8-3.2-1.5-4.7c-2.6-5.3-7.7-9-13.5-9.7c-3.9-0.5-7.9,0.3-11.3,2.4
		C94.2,125.3,93.2,126.5,93.1,126.5z"/>
	<path class="st1" d="M84.3,104.4c0,0-0.2-0.1-0.6-0.3l-1.6-0.9l-6.5-3.8h0.2l-11.4,12V111l5.5,8.3l0.1,0.1l-0.1,0.2
		c-1.7,3.1-3,6.5-3.9,10v0.2l-0.2,0.1l-9.7,2.4l0.3-0.4c0.1,5.2,0.2,10.8,0.3,16.6l-0.3-0.4l9.8,2h0.2l0.1,0.2
		c1,3.4,2.4,6.7,4.3,9.8l0.1,0.2l-0.1,0.2c-1.6,2.6-3.4,5.6-5.2,8.6l-0.1-0.6l11.9,11.5l-0.6-0.1l8.4-5.5l0.2-0.2l0.3,0.1
		c3.1,1.7,6.5,3,9.9,3.9l0.3,0.1l0.1,0.3c0.8,3.1,1.6,6.4,2.4,9.7l-0.5-0.4l16.6-0.3l-0.5,0.4c0.6-3.1,1.3-6.4,2-9.8l0.1-0.3
		l0.3-0.1c3.4-1,6.7-2.4,9.8-4.2l0,0l0.3-0.2l0.3,0.2l8.6,5.2l-0.6,0.1l11.5-11.9l-0.1,0.6l-5.4-8.4l-0.2-0.2l0.1-0.3
		c1.7-3.1,3.1-6.5,3.9-9.9l0.1-0.3l0.3-0.1l9.7-2.4l-0.4,0.5c-0.1-5.6-0.2-11.2-0.3-16.6l0.4,0.4l-9.8-2.1l-0.3-0.1l-0.1-0.3
		c-1-3.4-2.4-6.7-4.2-9.8l-0.1-0.2l0.1-0.2l5.2-8.6l0.1,0.5l-11.9-11.5h0.5l-8.4,5.5l-0.2,0.1l-0.2-0.1c-3.1-1.8-6.5-3.1-10-3.9
		l-0.2-0.1v-0.2c-0.9-3.5-1.6-6.7-2.4-9.7l0.3,0.2l-16.6,0.2l0.2-0.2c-0.8,3.9-1.5,7.1-2.1,9.8v0.1h-0.1c-2.6,0.7-5.1,1.7-7.6,2.9
		l-1.8,0.9C84.7,104.1,84.5,104.2,84.3,104.4c0-0.1,0.2-0.2,0.6-0.4s1-0.6,1.8-1c2.4-1.3,4.9-2.3,7.6-3.1L94,100
		c0.5-2.7,1.2-5.9,2-9.8V90h0.2l16.6-0.4h0.2l0.1,0.2c0.8,3,1.5,6.2,2.4,9.7l-0.2-0.2c3.5,0.9,7,2.2,10.1,4H125l8.4-5.5l0.3-0.2
		l0.2,0.2l11.9,11.5l0.2,0.2l-0.2,0.3l-5.2,8.6V118c1.9,3.1,3.4,6.5,4.4,10l-0.3-0.3l9.8,2l0.4,0.1v0.4c0.1,5.4,0.2,10.9,0.3,16.6
		v0.4l-0.4,0.1l-9.7,2.4l0.4-0.4c-0.9,3.6-2.2,7-4,10.2v-0.5c1.8,2.8,3.6,5.6,5.5,8.4l0.2,0.3l-0.3,0.3l-11.5,11.9l-0.3,0.3
		l-0.4-0.2l-8.6-5.2h0.5c-3.1,1.9-6.5,3.3-10,4.4l0.4-0.4c-0.7,3.4-1.4,6.7-2,9.8l-0.1,0.4h-0.4L98,189.1h-0.4l-0.1-0.4
		c-0.8-3.4-1.6-6.7-2.4-9.7l0.4,0.4c-3.5-0.9-7-2.2-10.2-4h0.5l-8.4,5.5l-0.3,0.2l-0.3-0.3L65,169.3l-0.3-0.2l0.2-0.3
		c1.8-3,3.6-5.9,5.2-8.6v0.5c-1.9-3.1-3.3-6.5-4.3-10l0.3,0.3l-9.8-2.1l-0.3-0.1v-0.2c-0.1-5.8-0.2-11.4-0.2-16.6v-0.3l0.3-0.1
		l9.7-2.4l-0.2,0.2c0.9-3.5,2.2-6.9,4-10.1v0.3l-5.4-8.4l-0.1-0.2l0.1-0.1l11.6-11.9l0.1-0.1l0.1,0.1l6.3,3.9l1.6,1
		C83.9,104.1,84.1,104.2,84.3,104.4z"/>
	<path class="st0" d="M172.2,38.1c2.3-1.4,4.8-2.5,7.4-3.2l1.5-7.4l12.5-0.2l1.8,7.3c2.6,0.7,5.2,1.7,7.5,3l6.3-4.1l9,8.6l-3.9,6.4
		c1.4,2.3,2.5,4.8,3.2,7.4l7.4,1.6l0.2,12.4l-7.3,1.8c-0.7,2.6-1.7,5.2-3,7.6l4.1,6.3l-8.6,8.9l-6.4-3.9c-2.3,1.4-4.8,2.5-7.4,3.2
		l-1.5,7.4l-12.4,0.2l-1.8-7.3c-2.6-0.7-5.2-1.7-7.5-3l-6.3,4.1l-9-8.6l3.9-6.4c-1.4-2.3-2.5-4.8-3.2-7.4l-7.4-1.5l-0.2-12.4
		l7.3-1.8c0.7-2.6,1.7-5.2,3-7.6l-4.1-6.3l8.6-9L172.2,38.1L172.2,38.1z M178.8,54.7c-5.1,5.3-5,13.8,0.3,18.9s13.8,5,18.9-0.3
		c5.1-5.3,5-13.8-0.3-18.9c0,0,0,0,0,0C192.4,49.3,183.9,49.4,178.8,54.7z"/>
</g>
<g id="freepik--background-simple--inject-17">
	<path class="st3" d="M464.2,65.2c0,0-22.9-38.3-73.4-44s-85.8,22-123,36.2c-19.5,7.4-41.7,4.6-62.4,8.2
		c-66.1,11.5-91,83.6-63.5,124.6c23.8,35.5,65.8,53.9,129.7,58.2s108.7,9.2,165.9-25.6S490.9,115.6,464.2,65.2z"/>
	<path class="st4" d="M464.2,65.2c0,0-22.9-38.3-73.4-44s-85.8,22-123,36.2c-19.5,7.4-41.7,4.6-62.4,8.2
		c-66.1,11.5-91,83.6-63.5,124.6c23.8,35.5,65.8,53.9,129.7,58.2s108.7,9.2,165.9-25.6S490.9,115.6,464.2,65.2z"/>
</g>
<line class="st5" x1="48" y1="279.6" x2="552" y2="279.6"/>
<g id="freepik--device-1--inject-17">
	<path class="st6" d="M200.1,262.2v-14H158v14c0,4.6-1.6,9-4.5,12.6l-1.9,2.3h54.9l-1.9-2.3C201.7,271.2,200.1,266.8,200.1,262.2z"
		/>
	<g>
		<g>
			<defs>
				<path id="SVGID_1_" d="M200.1,262.2v-14H158v14c0,4.6-1.6,9-4.5,12.6l-1.9,2.3h54.9l-1.9-2.3
					C201.7,271.2,200.1,266.8,200.1,262.2z"/>
			</defs>
			<clipPath id="SVGID_2_">
				<use xlink:href="#SVGID_1_"  style="overflow:visible;"/>
			</clipPath>
			<g class="st7">
				<path class="st8" d="M155.4,257.2h47.3c-1.7-3-2.6-6.4-2.6-9.8v-14H158v14C158,250.8,157.1,254.2,155.4,257.2z"/>
			</g>
		</g>
	</g>
	<path class="st5" d="M200.1,262.2v-14H158v14c0,4.6-1.6,9-4.5,12.6l-1.9,2.3h54.9l-1.9-2.3C201.7,271.2,200.1,266.8,200.1,262.2z"
		/>
	<path class="st9" d="M100.9,128.1h156.2c3.7,0,6.6,3,6.6,6.6v111.1c0,3.7-3,6.6-6.6,6.6H100.9c-3.7,0-6.6-3-6.6-6.6V134.8
		C94.3,131.1,97.3,128.1,100.9,128.1z"/>
	<path class="st10" d="M94.3,233.2h169.5l0,0v12.7c0,3.7-3,6.6-6.6,6.6l0,0H101c-3.7,0-6.7-3-6.7-6.6l0,0L94.3,233.2L94.3,233.2
		L94.3,233.2z"/>
	<rect x="102.8" y="135.9" class="st11" width="152.4" height="87.9"/>
	<rect x="102.8" y="135.9" class="st12" width="152.4" height="87.9"/>
	<rect x="151.6" y="277.1" class="st9" width="54.8" height="2.5"/>
	<rect x="134.7" y="148.5" class="st13" width="85.2" height="67"/>
	<rect x="138.5" y="151.2" class="st14" width="77.4" height="60.3"/>
	<path class="st15" d="M216.4,172.1c-3.6-4.9-7.1-6.3-11.6-1.9c-7,6.6-12,22.4-16.3,21.3c-4.2-1.2-4.3-7.7-8.1-12.4
		s-10.4,4.6-22.4,15.1c-5.7,5-12.4,8.6-19.7,10.6v7.2h78.2L216.4,172.1z"/>
	<path class="st15" d="M166.1,166.5c0,5.4-4.4,9.9-9.9,9.9c-5.4,0-9.9-4.4-9.9-9.9s4.4-9.9,9.9-9.9
		C161.6,156.6,166.1,161,166.1,166.5L166.1,166.5z"/>
</g>
<g id="freepik--device-1--inject-17_1_">
	<path class="st6" d="M442.1,262.2v-14h-42.2v14c0,4.6-1.6,9-4.5,12.6l-1.9,2.3h54.9l-1.9-2.3C443.7,271.2,442.1,266.8,442.1,262.2z
		"/>
	<g>
		<g>
			<defs>
				<path id="SVGID_3_" d="M442.1,262.2v-14h-42.2v14c0,4.6-1.6,9-4.5,12.6l-1.9,2.3h54.9l-1.9-2.3
					C443.7,271.2,442.1,266.8,442.1,262.2z"/>
			</defs>
			<clipPath id="SVGID_4_">
				<use xlink:href="#SVGID_3_"  style="overflow:visible;"/>
			</clipPath>
			<g class="st16">
				<path class="st8" d="M397.3,257.2h47.3c-1.7-3-2.6-6.4-2.6-9.8v-14h-42.2v14C399.9,250.8,399,254.2,397.3,257.2z"/>
			</g>
		</g>
	</g>
	<path class="st5" d="M442.1,262.2v-14h-42.2v14c0,4.6-1.6,9-4.5,12.6l-1.9,2.3h54.9l-1.9-2.3C443.7,271.2,442.1,266.8,442.1,262.2z
		"/>
	<path class="st9" d="M342.9,128.1h156.2c3.7,0,6.6,3,6.6,6.6v111.1c0,3.7-3,6.6-6.6,6.6H342.9c-3.7,0-6.6-3-6.6-6.6V134.8
		C336.2,131.1,339.2,128.1,342.9,128.1z"/>
	<path class="st10" d="M336.2,233.2h169.5l0,0v12.7c0,3.7-3,6.6-6.6,6.6l0,0H342.9c-3.7,0-6.6-3-6.6-6.6l0,0L336.2,233.2
		L336.2,233.2L336.2,233.2z"/>
	<rect x="344.8" y="135.9" class="st11" width="152.4" height="87.9"/>
	<rect x="344.8" y="135.9" class="st12" width="152.4" height="87.9"/>
	<rect x="393.6" y="277.1" class="st9" width="54.8" height="2.5"/>
	<rect x="376.6" y="148.5" class="st13" width="85.2" height="67"/>
	<rect x="380.4" y="151.2" class="st14" width="77.4" height="60.3"/>
	<path class="st15" d="M458.3,172.1c-3.6-4.9-7.1-6.3-11.6-1.9c-7,6.6-12,22.4-16.3,21.3c-4.2-1.2-4.3-7.7-8.1-12.4
		s-10.5,4.6-22.5,15.1c-5.7,5-12.4,8.6-19.7,10.6v7.2h78.2L458.3,172.1z"/>
	<path class="st15" d="M408,166.5c0,5.4-4.4,9.9-9.9,9.9s-9.9-4.4-9.9-9.9s4.4-9.9,9.9-9.9S408,161,408,166.5L408,166.5z"/>
</g>
<path class="st3" d="M318,175.8l-8.9-10c-0.4-0.4-1-0.5-1.5-0.1c-0.1,0.1-0.2,0.2-0.3,0.4l-1.4,3.4c-15.8-4.2-24.3,8.1-24.3,8.1
	l6,3.9c6.6-9.1,15.9-6.2,15.9-6.2l-1.3,3c-0.2,0.5,0,1.1,0.6,1.2c0.2,0.1,0.4,0.1,0.6,0.1l14.1-2.1c0.6-0.1,1-0.6,0.9-1.1
	C318.2,176.1,318.1,175.9,318,175.8z"/>
<path class="st3" d="M314.9,187.7c-6.1,8-14.1,6.3-15.8,5.8l1.8-3.9c0.1-0.2,0-0.5-0.3-0.6c-0.1,0-0.2,0-0.3,0l-16.1,2
	c-0.3,0-0.5,0.3-0.4,0.5c0,0.1,0,0.1,0.1,0.2l9.8,11.7c0.2,0.2,0.5,0.2,0.7,0.1c0.1-0.1,0.1-0.1,0.2-0.2l1.9-4.1
	c15.4,4.4,24.3-7.5,24.3-7.5L314.9,187.7z"/>
<path class="st17" d="M144.1,156.4h69.7c4.4,0,8,3.6,8,8v0v26.6c0,4.4-3.6,8-8,8h0h-25l3.4,8.4l-15.1-8.4h-33c-4.4,0-8-3.6-8-8v0
	v-26.6C136.1,159.9,139.7,156.4,144.1,156.4C144.1,156.4,144.1,156.4,144.1,156.4z"/>
<path class="st6" d="M141,163.6c0.5-0.7,1.3-1.1,2.2-1.1c1.8-0.1,2.8,0.7,3,2.5c1.1,7.3,2.3,13.4,3.5,18.5l7.6-14.5
	c0.7-1.3,1.6-2,2.6-2.1c1.5-0.1,2.5,0.9,2.9,2.9c0.7,4.1,1.8,8,3.3,11.9c0.9-8.8,2.4-15.2,4.6-19.1c0.4-0.9,1.3-1.5,2.3-1.5
	c0.8-0.1,1.6,0.2,2.2,0.7c0.6,0.5,1,1.2,1.1,2c0.1,0.6-0.1,1.2-0.4,1.7c-1.4,2.5-2.5,6.7-3.4,12.6c-0.9,5.7-1.2,10.1-1,13.2
	c0.1,0.8-0.1,1.6-0.4,2.3c-0.4,0.7-1.1,1.2-1.9,1.3c-0.9,0.1-1.8-0.4-2.8-1.3c-3.2-3.3-5.8-8.2-7.7-14.8c-2.3,4.4-3.9,7.8-5,10
	c-2.1,3.9-3.8,5.9-5.2,6.1c-0.9,0.1-1.7-0.7-2.4-2.4c-1.8-4.6-3.7-13.4-5.7-26.4C140.3,165.1,140.5,164.3,141,163.6L141,163.6z
	 M215.8,169.1c-1.1-2.1-3.2-3.6-5.6-4c-0.6-0.1-1.2-0.2-1.9-0.2c-3.3,0-6.1,1.7-8.2,5.2c-1.8,2.9-2.8,6.4-2.7,9.8
	c0,2.7,0.6,5,1.7,6.9c1.1,2.1,3.2,3.6,5.6,4c0.6,0.1,1.2,0.2,1.9,0.2c3.4,0,6.1-1.7,8.2-5.2c1.8-3,2.8-6.4,2.7-9.8
	C217.5,173.6,216.9,171.2,215.8,169.1L215.8,169.1z M211.4,178.7c-0.5,2.3-1.4,4-2.6,5.1c-1,0.9-1.9,1.3-2.8,1.1
	c-0.9-0.2-1.5-0.9-2.1-2.3c-0.4-1-0.6-2.1-0.6-3.2c0-0.9,0.1-1.7,0.2-2.5c0.3-1.5,0.9-2.9,1.8-4.1c1.1-1.7,2.4-2.4,3.6-2.1
	c0.8,0.2,1.5,0.9,2.1,2.3c0.4,1,0.6,2.1,0.6,3.2C211.6,177,211.5,177.9,211.4,178.7L211.4,178.7z M194,169.1c-1.2-2.1-3.2-3.6-5.6-4
	c-0.6-0.1-1.2-0.2-1.9-0.2c-3.3,0-6.1,1.7-8.2,5.2c-1.8,2.9-2.8,6.4-2.7,9.8c0,2.7,0.6,5,1.7,6.9c1.2,2.1,3.2,3.6,5.6,4
	c0.6,0.1,1.2,0.2,1.9,0.2c3.4,0,6.1-1.7,8.2-5.2c1.8-3,2.7-6.4,2.7-9.8C195.6,173.2,195.1,171,194,169.1z M189.6,178.7
	c-0.5,2.3-1.4,4-2.6,5.1c-1,0.9-1.9,1.3-2.8,1.1c-0.9-0.2-1.5-0.9-2.1-2.3c-0.4-1-0.6-2.1-0.6-3.2c0-0.9,0.1-1.7,0.2-2.5
	c0.3-1.5,0.9-2.9,1.8-4.1c1.1-1.7,2.4-2.4,3.6-2.1c0.8,0.2,1.5,0.9,2.1,2.3c0.4,1,0.6,2.1,0.6,3.2
	C189.8,177,189.8,177.9,189.6,178.7L189.6,178.7z"/>
<g>
	<g>
		<g>
			<g>
				<defs>
					<rect id="SVGID_5_" x="408.9" y="149.5" width="39.2" height="30"/>
				</defs>
				<clipPath id="SVGID_6_">
					<use xlink:href="#SVGID_5_"  style="overflow:visible;"/>
				</clipPath>
				<g class="st18">
					<g>
						<g>
							<defs>
								<path id="SVGID_7_" d="M419,150.1l-9.3,5.4c-0.7,0.4-0.9,1.2-0.5,1.9c0.1,0.2,0.3,0.4,0.5,0.5l37.1,21.5
									c0.5,0.3,1,0.1,1.3-0.3c0.1-0.1,0.1-0.3,0.1-0.5v-12.4c0-1.1-0.6-2.1-1.6-2.7l-23.1-13.4C422.1,149.3,420.4,149.3,419,150.1
									"/>
							</defs>
							<clipPath id="SVGID_8_">
								<use xlink:href="#SVGID_7_"  style="overflow:visible;"/>
							</clipPath>
							<g class="st19">
								
									<linearGradient id="SVGID_9_" gradientUnits="userSpaceOnUse" x1="-328.7542" y1="363.5756" x2="-328.1446" y2="363.5756" gradientTransform="matrix(64.34 0 0 -64.34 21561.9395 23556.9844)">
									<stop  offset="0" style="stop-color:#EA5243"/>
									<stop  offset="1" style="stop-color:#EE7C5B"/>
								</linearGradient>
								<rect x="408.7" y="149.3" class="st20" width="39.5" height="30.5"/>
							</g>
						</g>
					</g>
				</g>
			</g>
		</g>
	</g>
</g>
<g>
	<g>
		<defs>
			<path id="SVGID_10_" d="M406.8,160.4v43.1c0,1,0.5,1.9,1.3,2.3l10.5,6.2c0.6,0.4,1.4,0.1,1.7-0.4c0.1-0.2,0.2-0.4,0.2-0.6v-44
				c0-0.7-0.4-1.4-1-1.8l-10.5-6.1c-0.2-0.1-0.5-0.2-0.7-0.2C407.5,158.9,406.8,159.5,406.8,160.4"/>
		</defs>
		<clipPath id="SVGID_11_">
			<use xlink:href="#SVGID_10_"  style="overflow:visible;"/>
		</clipPath>
		<g class="st21">
			
				<linearGradient id="SVGID_12_" gradientUnits="userSpaceOnUse" x1="-339.8331" y1="374.7089" x2="-339.2235" y2="374.7089" gradientTransform="matrix(1.569 -249.7051 -249.7051 -1.569 94513.1484 -84010.8359)">
				<stop  offset="0" style="stop-color:#3E946D"/>
				<stop  offset="1" style="stop-color:#30B8BE"/>
			</linearGradient>
			<polygon class="st22" points="406.5,212.5 406.8,158.8 420.9,158.9 420.6,212.6 			"/>
		</g>
	</g>
</g>
<g>
	<g>
		<g>
			<defs>
				<rect id="SVGID_13_" x="421.7" y="165" width="26.4" height="29.6"/>
			</defs>
			<clipPath id="SVGID_14_">
				<use xlink:href="#SVGID_13_"  style="overflow:visible;"/>
			</clipPath>
			<g class="st23">
				<g>
					<g>
						<defs>
							<path id="SVGID_15_" d="M446.7,165.2l-23.8,13.8c-0.7,0.4-1.2,1.2-1.2,2v12.4c0,0.7,0.6,1.3,1.3,1.3c0.2,0,0.5-0.1,0.7-0.2
								l23.1-13.5c0.8-0.5,1.3-1.4,1.3-2.3V166c0-0.5-0.4-0.9-0.9-0.9C447,165,446.9,165.1,446.7,165.2"/>
						</defs>
						<clipPath id="SVGID_16_">
							<use xlink:href="#SVGID_15_"  style="overflow:visible;"/>
						</clipPath>
						<g class="st24">
							
								<linearGradient id="SVGID_17_" gradientUnits="userSpaceOnUse" x1="-366.1438" y1="388.2365" x2="-365.5342" y2="388.2365" gradientTransform="matrix(-23.6262 -18.7798 -18.7798 23.6262 -899.8549 -15848.8291)">
								<stop  offset="0" style="stop-color:#E67E21"/>
								<stop  offset="1" style="stop-color:#F5AD18"/>
							</linearGradient>
							<polygon class="st25" points="406.9,183.4 431.8,152.1 462.6,176.6 437.7,207.9 							"/>
						</g>
					</g>
				</g>
			</g>
		</g>
	</g>
</g>
</svg>
